<svg xmlns="http://www.w3.org/2000/svg" width="40" height="40" viewBox="0 0 40 40">
  <g id="avatar" transform="translate(-54 -346)">
    <path id="Sustracción_1" data-name="Sustracción 1" d="M-1914,272a19.869,19.869,0,0,1-14.142-5.858A19.869,19.869,0,0,1-1934,252a19.869,19.869,0,0,1,5.858-14.142A19.869,19.869,0,0,1-1914,232a19.871,19.871,0,0,1,14.143,5.858A19.869,19.869,0,0,1-1894,252a19.869,19.869,0,0,1-5.858,14.142A19.87,19.87,0,0,1-1914,272Zm0-19.375c-4.135,0-7.5,1.682-7.5,3.749v1.876h15v-1.876C-1906.5,254.307-1909.865,252.625-1914,252.625Zm0-9.375a3.754,3.754,0,0,0-3.749,3.75,3.754,3.754,0,0,0,3.749,3.749,3.754,3.754,0,0,0,3.75-3.749A3.755,3.755,0,0,0-1914,243.249Z" transform="translate(1988 114)" fill="#ebf0f5"/>
  </g>
</svg>
