<svg id="Symbol_20_5" data-name="Symbol 20 – 5" xmlns="http://www.w3.org/2000/svg" width="33.454" height="33.454" viewBox="0 0 33.454 33.454">
  <path id="Path_2" data-name="Path 2" d="M4.182,14.636A10.353,10.353,0,0,1,14.636,4.182,10.353,10.353,0,0,1,25.091,14.636,10.353,10.353,0,0,1,14.636,25.091,10.353,10.353,0,0,1,4.182,14.636ZM29.9,32.827A2.07,2.07,0,0,0,32.827,29.9l-6.482-6.482a14.316,14.316,0,0,0,2.927-8.782A14.546,14.546,0,0,0,14.636,0,14.546,14.546,0,0,0,0,14.636,14.546,14.546,0,0,0,14.636,29.273a14.316,14.316,0,0,0,8.782-2.927Z" fill="#ebf0f5"/>
</svg>
