<svg id="Symbol_78_7" data-name="Symbol 78 – 7" xmlns="http://www.w3.org/2000/svg" width="36.952" height="36.5" viewBox="0 0 36.952 36.5">
  <rect id="Rectangle_193" data-name="Rectangle 193" width="36" height="36" transform="translate(0 0.5)" fill="none"/>
  <path id="Path_104" data-name="Path 104" d="M277.107,22.81a4.562,4.562,0,1,0-4.562-4.562A4.575,4.575,0,0,0,277.107,22.81Zm-9.352-14.6a12.864,12.864,0,0,1,5.474-2.965L275.054,0h4.562l1.825,5.246a15.928,15.928,0,0,1,5.474,2.965l5.474-1.14,2.281,4.106-3.65,4.106a13,13,0,0,1,.228,2.965c0,.912-.228,2.053-.228,2.965l3.65,4.106-2.281,4.106-5.474-1.14a12.864,12.864,0,0,1-5.474,2.965L279.616,36.5h-4.562l-1.825-5.246a15.928,15.928,0,0,1-5.474-2.965l-5.474,1.14L260,25.319l3.65-4.106a13,13,0,0,1-.228-2.965c0-.912.228-2.053.228-2.965L260,11.177l2.281-4.106Z" transform="translate(-257.719)" fill="#ebf0f5"/>
</svg>
