<?xml version="1.0" encoding="utf-8"?>
<!-- Generator: Adobe Illustrator 26.4.1, SVG Export Plug-In . SVG Version: 6.00 Build 0)  -->
<svg version="1.1" baseProfile="tiny" id="Capa_1" xmlns="http://www.w3.org/2000/svg" xmlns:xlink="http://www.w3.org/1999/xlink"
	 x="0px" y="0px" viewBox="0 0 30 30" overflow="visible" xml:space="preserve">
<path fill="#FFFFFF" d="M15.8,28.1c-0.5,0-1,0-1.5,0c-0.1,0-0.1,0-0.2,0c-1.6-0.1-3.1-0.5-4.6-1.2C4.8,24.5,2.3,20.7,2,15.5
	c-0.2-2.4,0.4-4.6,1.5-6.7c2.4-4.3,6.1-6.6,11-6.9c2.4-0.1,4.6,0.4,6.7,1.5c3.7,2,5.9,5.1,6.7,9.3c0.1,0.5,0.1,1,0.2,1.5
	c0,0.5,0,1,0,1.5c0,0.1,0,0.1,0,0.2c-0.1,1.8-0.6,3.6-1.5,5.2c-2,3.7-5.1,5.9-9.3,6.7C16.8,28,16.3,28,15.8,28.1z M11.5,9.4
	c-0.7,0.7-1.4,1.4-2.1,2.1c0.1,0,0.1,0.1,0.2,0.2c1,1,2.1,2,3.1,3c0.3,0.3,0.3,0.3,0,0.6c-0.6,0.7-1.3,1.3-2,2
	c-0.4,0.4-0.9,0.8-1.3,1.2c0.7,0.7,1.4,1.4,2.1,2.1c0.1-0.1,0.1-0.2,0.2-0.3c1-1,2-2,3-3c0.3-0.3,0.3-0.3,0.6,0
	c0.9,0.9,1.8,1.8,2.7,2.8c0.2,0.2,0.3,0.3,0.5,0.5c0.7-0.7,1.4-1.4,2.1-2.1c-0.1-0.1-0.2-0.1-0.2-0.2c-1-1-2.1-2-3.1-3
	C17,15,17,15,17.3,14.7c0.9-0.9,1.8-1.8,2.7-2.7c0.2-0.2,0.4-0.4,0.6-0.5c-0.7-0.7-1.4-1.4-2.1-2.1c0,0.1-0.1,0.1-0.2,0.2
	c-1,1-2,2-3,3C15,13,15,13,14.6,12.6c-0.5-0.5-1.1-1.1-1.6-1.6C12.5,10.5,12,9.9,11.5,9.4z"/>
</svg>
