<svg xmlns="http://www.w3.org/2000/svg" xmlns:xlink="http://www.w3.org/1999/xlink" width="567.043" height="563.844" viewBox="0 0 567.043 563.844">
  <defs>
    <clipPath id="clip-path">
      <rect id="Rectángulo_8" data-name="Rectángulo 8" width="567.043" height="554.688" fill="none"/>
    </clipPath>
  </defs>
  <g id="Grupo_28" data-name="Grupo 28" transform="translate(-692 -239)">
    <path id="Trazado_31" data-name="Trazado 31" d="M223.926,3.4c74.912,67.392,223.926,94.273,223.926,217.945s-14.829,369.33-223.926,223.926S0,345.015,0,221.344,149.014-63.993,223.926,3.4Z" transform="translate(762.418 312.917)" fill="#f0730d"/>
    <path id="Trazado_32" data-name="Trazado 32" d="M220.2-7.541c160-118.822,85.866,164.247,194.656,223.926S343.876,440.312,220.2,440.312-67.474,327.091-3.722,216.386,60.207,111.281,220.2-7.541Z" transform="translate(770.815 335.664)" fill="#172532"/>
    <g id="Grupo_2" data-name="Grupo 2" transform="translate(692 239)" clip-path="url(#clip-path)">
      <path id="Trazado_33" data-name="Trazado 33" d="M189.161,45.982a9.888,9.888,0,1,1,9.887-9.889,9.9,9.9,0,0,1-9.887,9.889m0-15.787a5.9,5.9,0,1,0,5.9,5.9,5.9,5.9,0,0,0-5.9-5.9" transform="translate(59.064 8.634)" fill="#fcffec"/>
      <path id="Trazado_34" data-name="Trazado 34" d="M46.079,218.83a9.888,9.888,0,1,1,9.887-9.889,9.9,9.9,0,0,1-9.887,9.889m0-15.787a5.9,5.9,0,1,0,5.9,5.9,5.906,5.906,0,0,0-5.9-5.9" transform="translate(11.924 65.58)" fill="#fcffec"/>
      <path id="Trazado_35" data-name="Trazado 35" d="M350.925,292.883A9.887,9.887,0,1,1,360.812,283a9.9,9.9,0,0,1-9.887,9.887m0-15.786a5.9,5.9,0,1,0,5.9,5.9,5.906,5.906,0,0,0-5.9-5.9" transform="translate(112.359 89.979)" fill="#fcffec"/>
      <path id="Trazado_36" data-name="Trazado 36" d="M87.69,407.088a9.887,9.887,0,1,1,9.887-9.887,9.9,9.9,0,0,1-9.887,9.887m0-15.786a5.9,5.9,0,1,0,5.9,5.9,5.9,5.9,0,0,0-5.9-5.9" transform="translate(25.633 127.605)" fill="#fcffec"/>
      <path id="Trazado_37" data-name="Trazado 37" d="M102.169,291.471a9.887,9.887,0,1,1,9.887-9.887,9.9,9.9,0,0,1-9.887,9.887m0-15.786a5.9,5.9,0,1,0,5.9,5.9,5.9,5.9,0,0,0-5.9-5.9" transform="translate(30.403 89.514)" fill="#fcffec"/>
      <path id="Trazado_38" data-name="Trazado 38" d="M370.269,213.055a15.878,15.878,0,1,1,15.878-15.879,15.9,15.9,0,0,1-15.878,15.879m0-27.768a11.89,11.89,0,1,0,11.889,11.889,11.9,11.9,0,0,0-11.889-11.889" transform="translate(116.758 59.731)" fill="#fcffec"/>
      <path id="Trazado_39" data-name="Trazado 39" d="M110.3,337.837a15.878,15.878,0,1,1,15.878-15.879A15.9,15.9,0,0,1,110.3,337.837m0-27.768a11.89,11.89,0,1,0,11.889,11.889A11.9,11.9,0,0,0,110.3,310.068" transform="translate(31.107 100.841)" fill="#fcffec"/>
      <path id="Trazado_40" data-name="Trazado 40" d="M355.538,350.178A15.878,15.878,0,1,1,371.415,334.3a15.9,15.9,0,0,1-15.878,15.879m0-27.768A11.89,11.89,0,1,0,367.427,334.3a11.9,11.9,0,0,0-11.889-11.889" transform="translate(111.905 104.907)" fill="#fcffec"/>
      <path id="Trazado_41" data-name="Trazado 41" d="M73.7,208.278A15.878,15.878,0,1,1,89.579,192.4,15.9,15.9,0,0,1,73.7,208.278m0-27.768A11.89,11.89,0,1,0,85.591,192.4,11.9,11.9,0,0,0,73.7,180.509" transform="translate(19.051 58.157)" fill="#f58d12"/>
      <path id="Trazado_42" data-name="Trazado 42" d="M133.827,65.787a23.2,23.2,0,1,1,23.2-23.2,23.224,23.224,0,0,1-23.2,23.2m0-42.4a19.208,19.208,0,1,0,19.207,19.207,19.229,19.229,0,0,0-19.207-19.207" transform="translate(36.449 6.39)" fill="#f58d12"/>
      <path id="Trazado_43" data-name="Trazado 43" d="M318.4,58.248a23.2,23.2,0,1,1,23.2-23.2,23.224,23.224,0,0,1-23.2,23.2m0-42.406A19.209,19.209,0,1,0,337.6,35.052,19.231,19.231,0,0,0,318.4,15.842" transform="translate(97.256 3.905)" fill="#f58d12"/>
      <path id="Trazado_44" data-name="Trazado 44" d="M119.141,424.983A15.878,15.878,0,1,1,135.019,409.1a15.9,15.9,0,0,1-15.878,15.879m0-27.768A11.89,11.89,0,1,0,131.03,409.1a11.9,11.9,0,0,0-11.889-11.889" transform="translate(34.021 129.553)" fill="#fcffec"/>
      <path id="Trazado_45" data-name="Trazado 45" d="M41.325,178.879a26.172,26.172,0,0,1-9.165-1.977l-.371-.186c-.362-.235-8.87-5.8-10.351-12.936A9.932,9.932,0,0,1,22.981,156c6.058-9.084,23.41-19.559,24.147-20l1.847-1.107.963,1.924c.263.526,6.421,13.029,4.9,26.107-.842,7.23-3.144,11.9-7.042,14.261a12.18,12.18,0,0,1-6.47,1.692m-7.535-5.625c5.254,1.966,9.27,2.142,11.937.525,2.736-1.662,4.47-5.469,5.149-11.315,1.044-8.971-2.03-17.941-3.619-21.842C42.593,143.6,30.745,151.55,26.3,158.215a6,6,0,0,0-.957,4.749c1.04,5.036,7.345,9.538,8.447,10.29" transform="translate(6.988 44.443)" fill="#fcffec"/>
      <path id="Trazado_46" data-name="Trazado 46" d="M46.78,142.605,42.838,142c.806-5.242-1.925-10.742-3.213-12.976-5.972,1.183-11.4,6.962-11.46,7.024l-2.925-2.709c.292-.316,7.259-7.756,15.224-8.458l1.165-.1.658.965c.237.347,5.769,8.571,4.494,16.864" transform="translate(8.316 41.109)" fill="#fcffec"/>
      <path id="Trazado_47" data-name="Trazado 47" d="M27.284,172.306c-2.792,0-7.587-.892-12.079-6.026A24.364,24.364,0,0,1,9.857,148.2c.528-4.63,2.547-8.425,5.682-10.684a109.908,109.908,0,0,1,14.66-8.86l1.57-.762.964,1.454c.267.4,6.55,10.008,7.149,20.393l-3.982.23c-.4-7.035-3.886-13.927-5.578-16.9a109.507,109.507,0,0,0-12.45,7.678c-2.837,2.043-3.769,5.424-4.052,7.9a20.508,20.508,0,0,0,4.387,15c5.052,5.773,10.258,4.592,10.477,4.54l1,3.862a10.167,10.167,0,0,1-2.4.25" transform="translate(3.2 42.136)" fill="#fcffec"/>
      <path id="Trazado_48" data-name="Trazado 48" d="M50.143,179.527a20.317,20.317,0,0,1-11.642-3.76l2.385-3.2c.384.285,9.531,6.88,18.452-.461,7.445-6.126,4.5-20.827,3.134-26.129-5.488,1.934-12.425,4.985-13.7,6.98l-3.364-2.144c2.709-4.249,15.3-8.487,17.8-9.294l1.894-.612.616,1.892c.3.941,7.367,23.161-3.846,32.387a18.113,18.113,0,0,1-11.729,4.338" transform="translate(12.685 46.424)" fill="#fcffec"/>
      <path id="Trazado_49" data-name="Trazado 49" d="M58.035,148.012a45.2,45.2,0,0,0-3.547-13.139c-1.887.468-6.552,3.745-10.669,7.566l-2.713-2.922c5.181-4.811,12.1-10.153,15.616-8.267l.5.267.283.489c.13.225,3.215,5.625,4.486,15.5Z" transform="translate(13.543 43.114)" fill="#fcffec"/>
      <path id="Trazado_50" data-name="Trazado 50" d="M52.445,136.84a40.325,40.325,0,0,0-3.5-10.636,48,48,0,0,0-9.269,6.174l-2.618-3.009c.246-.214,6.1-5.279,11.937-7.525l1.288-.5.917,1.032c.3.34,3.019,3.615,5.142,13.634Z" transform="translate(12.211 39.98)" fill="#fcffec"/>
      <path id="Trazado_51" data-name="Trazado 51" d="M38.562,179.822a29.038,29.038,0,0,1-8.907-1.509c-5.905-1.9-9.858-4.966-11.748-9.1a14.621,14.621,0,0,1-.233-10.987l3.671,1.561L19.508,159l1.841.77a10.68,10.68,0,0,0,.2,7.823c1.416,3.055,4.552,5.384,9.325,6.921,14.157,4.561,19.689-4.06,19.918-4.431l3.415,2.063c-.058.094-4.762,7.674-15.649,7.674" transform="translate(5.503 52.128)" fill="#fcffec"/>
      <path id="Trazado_52" data-name="Trazado 52" d="M397.563,169.658h-.092l-.417-.045c-.419-.09-10.349-2.283-14.26-8.43a9.934,9.934,0,0,1-1.308-7.82c2.45-10.642,14.97-26.583,15.5-27.255l1.333-1.69,1.583,1.46c.431.4,10.614,9.91,13.822,22.679,1.772,7.061,1.272,12.239-1.538,15.833-2.771,3.544-7.555,5.269-14.628,5.269m1.182-39.275c-3.308,4.434-11.576,16.065-13.373,23.874a6,6,0,0,0,.783,4.778c2.756,4.342,10.247,6.319,11.548,6.634,5.609-.021,9.426-1.278,11.347-3.737,1.972-2.523,2.244-6.7.811-12.4-2.2-8.76-8.249-16.061-11.116-19.146" transform="translate(125.589 40.991)" fill="#fcffec"/>
      <path id="Trazado_53" data-name="Trazado 53" d="M396.54,132.236c-1.1-5.162-5.606-9.355-7.6-11-5.164,3.221-8.195,10.545-8.227,10.624l-3.7-1.5c.163-.4,4.044-9.823,11.245-13.3l1.052-.508.957.669c.344.241,8.43,5.973,10.174,14.18Z" transform="translate(124.211 38.401)" fill="#fcffec"/>
      <path id="Trazado_54" data-name="Trazado 54" d="M386.776,167.485a17.722,17.722,0,0,1-8.4-2.26,24.372,24.372,0,0,1-11.4-15.016c-1.145-4.519-.6-8.782,1.531-12.005a110.219,110.219,0,0,1,10.575-13.477l1.2-1.267,1.417,1.02c.392.283,9.669,7.04,13.906,16.54l-3.643,1.625c-2.872-6.436-8.566-11.649-11.2-13.828a109.531,109.531,0,0,0-8.927,11.588c-1.929,2.915-1.6,6.409-.992,8.826a20.5,20.5,0,0,0,9.414,12.476c6.876,3.669,11.344.58,11.389.548l2.313,3.249a13.026,13.026,0,0,1-7.176,1.982" transform="translate(120.709 40.675)" fill="#fcffec"/>
      <path id="Trazado_55" data-name="Trazado 55" d="M407.811,166.913a18.777,18.777,0,0,1-5.093-.665l1.1-3.831-.552,1.916.546-1.917c.461.129,11.348,3.059,17.094-6.965,4.793-8.364-3.163-21.071-6.319-25.546-4.448,3.752-9.855,9.062-10.339,11.378l-3.9-.816c1.03-4.932,11.306-13.354,13.354-14.992l1.554-1.243,1.246,1.553c.62.772,15.088,19.052,7.869,31.65a18.462,18.462,0,0,1-16.56,9.479" transform="translate(131.899 40.929)" fill="#fcffec"/>
      <path id="Trazado_56" data-name="Trazado 56" d="M412.872,132.329A45.178,45.178,0,0,0,404.9,121.3c-1.6,1.106-4.8,5.823-7.3,10.855l-3.574-1.773c3.144-6.335,7.71-13.776,11.679-13.26l.561.073.439.358c.2.164,5,4.123,9.681,12.9Z" transform="translate(129.817 38.577)" fill="#fcffec"/>
      <path id="Trazado_57" data-name="Trazado 57" d="M390.228,124.079l-3.515-1.885c.155-.288,3.837-7.1,8.5-11.265l1.029-.92,1.223.641c.4.211,4.1,2.312,9.635,10.931l-3.357,2.154a40.256,40.256,0,0,0-7.033-8.709,47.947,47.947,0,0,0-6.482,9.054" transform="translate(127.407 36.244)" fill="#fcffec"/>
      <path id="Trazado_58" data-name="Trazado 58" d="M395.993,169.71c-5.426,0-9.664-1.474-12.611-4.4a14.614,14.614,0,0,1-4.107-10.193l3.986.16-1.993-.08,1.993.07a10.7,10.7,0,0,0,2.959,7.243c2.406,2.356,6.153,3.422,11.173,3.171,14.863-.746,16.977-10.769,17.061-11.2l3.923.721c-.025.136-2.654,13.547-20.785,14.458q-.816.042-1.6.041" transform="translate(124.955 50.898)" fill="#fcffec"/>
      <path id="Trazado_59" data-name="Trazado 59" d="M375.623,420.27l-.209,0c-.432-.005-10.6-.219-15.632-5.485a9.926,9.926,0,0,1-2.809-7.414c.323-10.915,9.491-28.992,9.882-29.755l.98-1.92,1.836,1.125c.5.306,12.347,7.647,17.986,19.544,3.116,6.578,3.635,11.756,1.583,15.826-2.034,4.035-6.421,6.666-13.412,8.042Zm-6.21-38.807c-2.38,4.993-8.217,18.014-8.454,26.024a6,6,0,0,0,1.7,4.533c3.551,3.721,11.282,4.2,12.618,4.253,5.5-1.115,9-3.094,10.4-5.88,1.443-2.86.895-7-1.625-12.323-3.869-8.162-11.227-14.143-14.64-16.608" transform="translate(117.607 123.776)" fill="#fcffec"/>
      <path id="Trazado_60" data-name="Trazado 60" d="M353.062,384.819l-3.922-.722c.068-.367,1.722-9.062,8.111-13.882l.933-.7,1.07.471c.383.168,9.431,4.213,12.744,11.921l-3.664,1.575c-2.086-4.855-7.335-8.09-9.609-9.306-4.379,4.011-5.649,10.577-5.664,10.648" transform="translate(115.028 121.739)" fill="#fcffec"/>
      <path id="Trazado_61" data-name="Trazado 61" d="M362.3,420.329a19.316,19.316,0,0,1-5.605-.875,24.378,24.378,0,0,1-14.113-12.5c-2-4.209-2.3-8.5-.842-12.074a110.4,110.4,0,0,1,7.74-15.281l.929-1.477,1.587.723c.441.2,10.859,5.017,16.868,13.509l-3.256,2.3c-4.071-5.751-10.674-9.752-13.684-11.375a109.891,109.891,0,0,0-6.493,13.107c-1.323,3.237-.322,6.6.751,8.849a20.505,20.505,0,0,0,11.667,10.4c7.336,2.221,11.134-1.54,11.291-1.7l2.89,2.749a13.75,13.75,0,0,1-9.732,3.644" transform="translate(112.29 124.576)" fill="#fcffec"/>
      <path id="Trazado_62" data-name="Trazado 62" d="M382.261,415.806c-.452,0-.875-.019-1.267-.05l.328-3.975c.484.039,11.73.784,15.407-10.168,3.068-9.137-7.216-20.047-11.183-23.82-3.631,4.548-7.9,10.811-7.92,13.175l-3.988-.036c.047-5.039,8.479-15.3,10.169-17.31l1.283-1.524,1.524,1.279c.759.635,18.518,15.741,13.9,29.5-3.462,10.313-12.813,12.924-18.25,12.924" transform="translate(123.099 122.592)" fill="#fcffec"/>
      <path id="Trazado_63" data-name="Trazado 63" d="M369.466,383.156l-3.852-1.042c1.847-6.825,4.884-15.018,8.868-15.285l.565-.037.5.266c.23.121,5.707,3.068,12.014,10.767l-3.086,2.527a45.238,45.238,0,0,0-9.966-9.265c-1.345,1.409-3.6,6.746-5.043,12.069" transform="translate(120.456 120.844)" fill="#fcffec"/>
      <path id="Trazado_64" data-name="Trazado 64" d="M360.711,376.573l-3.814-1.165c.094-.312,2.376-7.711,6.137-12.706l.83-1.1,1.324.388c.437.129,4.476,1.466,11.584,8.84L373.9,373.6a40.25,40.25,0,0,0-8.6-7.168,47.993,47.993,0,0,0-4.589,10.145" transform="translate(117.584 119.133)" fill="#fcffec"/>
      <path id="Trazado_65" data-name="Trazado 65" d="M371.055,421.959a15,15,0,0,1-8.453-2.35,14.626,14.626,0,0,1-6.017-9.2l3.939-.62-1.969.31,1.968-.32a10.706,10.706,0,0,0,4.318,6.526c2.816,1.841,6.71,2.154,11.574.929,14.57-3.669,14.551-14.192,14.548-14.3l3.988-.072c0,.137.043,13.8-17.562,18.236a26,26,0,0,1-6.335.855" transform="translate(117.481 132.729)" fill="#fcffec"/>
      <path id="Trazado_66" data-name="Trazado 66" d="M411.08,276.7a39.628,39.628,0,0,0,6.19.5c9,0,24.748-3.461,29.109-26.63l.12-.669-.086-.015a2.4,2.4,0,0,0-4.6-.7,68.492,68.492,0,0,1-5.227,8.349c-.661-.12-1.928-.512-2.658-.738a29.759,29.759,0,0,0-9.237-1.716,20.56,20.56,0,0,0-11.864,4.616c.545-1.726,1.077-3.455,1.579-5.193.043.009.082.028.128.035.012,0,.121.012.315.012,1.772,0,17.455-.6,22.287-21.334,3.587-17.432,1.94-25.93.206-28.7l.177-.088-.927-.774a2.5,2.5,0,0,0-2.416-.258c-1.5.663-1.541,1.805-1.626,4.321-.137,4.228-.463,14.128-4.922,20.665-.42.6-.826,1.113-1.222,1.593a61.037,61.037,0,0,0,.815-9.414c.017-.669.029-1.287.056-1.494,1.082-5.126-1.792-34.41-5.758-38.1a2.982,2.982,0,0,0-3.687-.4c-2.108,1.373-1.809,4.27-1.151,10.62.753,7.283,1.892,18.287-1.567,25.753a48.131,48.131,0,0,0-3.691,13.691,20.032,20.032,0,0,1-2.384-5.543c-1.8-6.393-.642-14.1-.019-18.26.437-2.91.6-4-.529-5a2.526,2.526,0,0,0-2.452-.487c-3.643,1.27-6.114,14.168-7.546,24.749-2.934,18.355,10.511,26.749,10.653,26.831a2.421,2.421,0,0,0,.647.246q-.82,2.832-1.719,5.644a18.1,18.1,0,0,0-7.571-11.062,32.547,32.547,0,0,0-8.739-3.5c-.831-.238-2.023-.578-2.63-.826a54.217,54.217,0,0,1-.8-7.022c-.1-1.263-.153-2.025-1.1-2.683a2.418,2.418,0,0,0-2.057-.328,2.392,2.392,0,0,0-1.537,1.4c-7.186,17.724,5.055,31.9,18.936,39.283-1.121,2.8-2.283,5.578-3.519,8.329a18.169,18.169,0,0,0-6.356-12.456,32.434,32.434,0,0,0-8.3-4.452c-.843-.348-1.953-.8-2.515-1.11a55.078,55.078,0,0,1-.015-7.062c.043-1.268.07-2.035-.806-2.793a2.4,2.4,0,0,0-3.684.669c-11.831,21.84,10.055,38.189,14.636,41.293.025.019.056.024.078.041-1.283,2.4-2.6,4.775-3.964,7.123.32-5.419-2.659-13.779-11.273-19.28a21.219,21.219,0,0,1-4.01-4.225,2.447,2.447,0,0,0-2-1.049,2.4,2.4,0,0,0-2.215,1.513c-5.34,13.417-1.9,22.693,1.932,28.11,3.143,4.45,7.719,7.687,9.425,7.823-2.832,4.172-5.789,8.255-8.9,12.212a2.4,2.4,0,0,0,.4,3.372,2.413,2.413,0,0,0,1.481.513,2.384,2.384,0,0,0,1.889-.92c3.079-3.921,6.012-7.964,8.829-12.09a22.436,22.436,0,0,0,13.436,4.753,20.582,20.582,0,0,0,2.515-.156c7.667-.948,14.964-6.139,21.681-15.431l.39-.538-1.7-1.226-.16-2.074-.654.04a17.436,17.436,0,0,1-5.775-.617,26.1,26.1,0,0,0-19.933-.464q1.454-2.559,2.844-5.153A38.691,38.691,0,0,0,400.3,300a38.237,38.237,0,0,0,9.655,1.3c9.507,0,22.089-4.071,28.029-23.462l.173-.6-.066-.027a2.4,2.4,0,0,0-1.8-2.4,2.373,2.373,0,0,0-2.685,1.142,68.854,68.854,0,0,1-6.124,7.718c-.634-.189-1.813-.7-2.57-1.034a28.612,28.612,0,0,0-8.98-2.724,20.515,20.515,0,0,0-11.861,3.013q1.546-3.5,2.967-7.059a35.988,35.988,0,0,0,4.052.83m-25.442-30.894Zm17.247,22.933c-5.118-3.051-15.257-10.4-16.471-21.313a18.825,18.825,0,0,0,4.048,1.442,28.878,28.878,0,0,1,7.465,2.927c4.556,2.877,7.549,9.912,4.958,16.943m29.624-7.359a16.744,16.744,0,0,0,4.414.994,21.167,21.167,0,0,1-7.541,7.151c-7.277,4.022-15.72,2.889-19.673,2.006,3.114-7.727,9.96-11.46,15.139-11.655a25.889,25.889,0,0,1,7.662,1.5M409.016,246.62c-3.192-3.229-7.405-9.6-5.774-19.826q.245-1.789.5-3.477a27.576,27.576,0,0,0,.666,3.036,25.738,25.738,0,0,0,3.411,7.6c1.837,2.993,3.078,5.013,1.2,12.671m13.744-29.012a2.424,2.424,0,0,0-.229.751c-.065.488-.084,1.177-.11,2.184-.189,7.4-1.123,16.109-6.572,18.878a46.236,46.236,0,0,1,3.639-20.492,35.133,35.133,0,0,0,2.748-13.182c.61,5.917.855,10.863.524,11.86m-4.637,31.717c2.207-7.8,4.206-9.369,6.933-11.506a28.743,28.743,0,0,0,6.516-6.7,24.524,24.524,0,0,0,1.6-2.711c-.217,1.232-.453,2.5-.719,3.781-2.852,12.223-9.8,16-14.328,17.135m-18.929,45.312c3.966-7.368,11.206-10.3,16.358-9.932a24.889,24.889,0,0,1,7.442,2.344,16.545,16.545,0,0,0,4.28,1.48,21.229,21.229,0,0,1-8.332,6.295c-7.7,3.187-15.935,1.127-19.748-.186m-6.464-3.547c-4.7-3.6-13.873-12.021-13.946-22.993a19.433,19.433,0,0,0,3.8,1.841,28.621,28.621,0,0,1,7.106,3.746c4.212,3.365,6.4,10.692,3.042,17.405m18.8,17.707a12.8,12.8,0,0,0,3.088.78c-5.044,5.912-10.277,9.237-15.569,9.89a16.961,16.961,0,0,1-11.537-2.985,27.326,27.326,0,0,1,4.668-6.35c2.869-2.459,10.657-5,19.35-1.336m-39.758-22.525a15.3,15.3,0,0,0,2.469,2.13c7.726,4.935,9.887,12.551,8.911,16.157-.577,2.3-2.6,5.152-3.625,6.486-3.475-2.467-11.824-10.145-7.755-24.773" transform="translate(120.544 59.339)" fill="#f58d12"/>
      <path id="Trazado_67" data-name="Trazado 67" d="M87.522,441.751c-3.689-3.422-7.251-6.992-10.7-10.668,1.684-.411,5.656-4.276,8.08-9.2,2.931-5.952,4.878-15.653-2.5-28.065a2.4,2.4,0,0,0-4.236.191,21.162,21.162,0,0,1-3.274,4.79c-7.676,6.812-9.308,15.544-8.14,20.823-1.716-2.1-3.381-4.237-5.02-6.4.043-.041.092-.076.13-.121,3.972-3.724,23.026-23.3,7.913-43.019a2.391,2.391,0,0,0-1.848-.937,2.457,2.457,0,0,0-1.892.85c-.75.888-.6,1.637-.363,2.877a57.628,57.628,0,0,1,1.106,6.982c-.493.382-1.514,1.005-2.327,1.5a32.441,32.441,0,0,0-7.484,5.681,18.226,18.226,0,0,0-4.334,13.321c-1.651-2.526-3.237-5.093-4.785-7.682,4.515-3.406,25.252-20.692,12.541-41.768a2.406,2.406,0,0,0-3.712-.5c-.839.8-.776,1.561-.673,2.817a58.128,58.128,0,0,1,.324,7.065c-.552.338-1.687.866-2.477,1.232a32.429,32.429,0,0,0-8.07,4.817,18.128,18.128,0,0,0-5.755,12.134q-1.33-2.644-2.59-5.319a2.416,2.416,0,0,0,.609-.342c.122-.1,12.125-10.379,6.326-28.11-3.08-10.254-7.573-22.625-11.521-23.341a2.533,2.533,0,0,0-2.176.889c-.956,1.173-.624,2.224.267,5.037,1.264,3.991,3.619,11.421,2.838,18.066a19.841,19.841,0,0,1-1.477,5.794A48.278,48.278,0,0,0,26.48,338.2c-4.564-6.8-5.166-17.851-5.564-25.164-.347-6.369-.505-9.277-2.894-10.342a3.013,3.013,0,0,0-3.49,1.008c-3.338,4.264-1.582,33.633.274,38.473.074.258.19.889.324,1.623a60.7,60.7,0,0,0,2.253,9.062c-.456-.4-.924-.838-1.419-1.347-5.461-5.786-7.333-15.516-8.155-19.781-.461-2.39-.673-3.483-2.261-3.9a2.511,2.511,0,0,0-2.341.632l-.045.048.019-.017-.395.465L2.81,329C1.375,331.551.7,340.226,7.326,357.812c4.3,10.559,10.843,14.762,15.576,16.431a21.817,21.817,0,0,0,7.218,1.25,14.767,14.767,0,0,0,2.868-.237c.036-.012.069-.033.1-.048q1.157,2.459,2.38,4.89A20.538,20.538,0,0,0,23,377.393a28.753,28.753,0,0,0-8.833,3.14c-.731.36-1.883.928-2.5,1.146a69.017,69.017,0,0,1-6.451-7.388,2.4,2.4,0,0,0-4.452,1.42l-.076.033.21.588c3.861,10.8,10.006,17.748,18.261,20.654A27.741,27.741,0,0,0,28.4,398.5a37.728,37.728,0,0,0,11.448-1.885,35.785,35.785,0,0,0,3.886-1.46q1.962,3.28,4.03,6.5a20.42,20.42,0,0,0-12.2-1.1,28.637,28.637,0,0,0-8.43,4.1c-.642.411-1.758,1.126-2.364,1.417a68.686,68.686,0,0,1-7.226-6.621,2.4,2.4,0,0,0-4.269,1.873l-.088.043.291.593c4.486,9.175,10.47,15.135,17.788,17.714a26.1,26.1,0,0,0,8.7,1.448,35.848,35.848,0,0,0,14.188-3.183,36.819,36.819,0,0,0,3.72-1.852q1.777,2.343,3.613,4.637a26.165,26.165,0,0,0-19.632,3.617,17.7,17.7,0,0,1-5.581,1.5l-.651.064.169,2.073-1.481,1.477.471.471c5.153,5.172,10.321,8.695,15.363,10.471a23.317,23.317,0,0,0,7.751,1.38c.241,0,.481,0,.719-.012a22.08,22.08,0,0,0,15.03-7.045c3.429,3.635,6.958,7.167,10.614,10.557a2.373,2.373,0,0,0,.835.507h0a2.4,2.4,0,0,0,2.432-4.024M71.788,419.7c-1.518-3.382-.564-11.229,6.314-17.332a15.186,15.186,0,0,0,2.081-2.468c6.307,13.805-.73,22.7-3.776,25.681-1.22-1.161-3.673-3.665-4.619-5.882m-17.375-7.24c-3.556,1.9-11.358,5.221-19.473,3.282a21.254,21.254,0,0,1-9.224-4.916,16.379,16.379,0,0,0,4-2.127,24.938,24.938,0,0,1,6.962-3.478c5.056-1.189,12.666.594,17.734,7.239m6.112-22.2a28.933,28.933,0,0,1,6.42-4.8,18.774,18.774,0,0,0,3.459-2.425c1.659,10.85-6.08,20.613-10.164,24.909-4.373-6.1-3.356-13.689.285-17.68M48.961,369.94a28.737,28.737,0,0,1,6.921-4.061,18.381,18.381,0,0,0,3.746-2.057c.521,10.969-8.344,19.822-12.926,23.639-3.661-6.54-1.8-13.961,2.259-17.521M19.85,342.921c-.177-.96-.3-1.652-.448-2.132a1.708,1.708,0,0,0-.263-.578c-.512-.977-1.066-5.892-1.4-11.818a34.874,34.874,0,0,0,4.74,12.446A46.262,46.262,0,0,1,29.3,360.512c-6.617-2.257-8.657-13.311-9.448-17.591m8.762,27.755c-4.646-.413-12.1-3.036-16.818-14.617-.471-1.254-.915-2.486-1.325-3.687a24.571,24.571,0,0,0,2.031,2.461,28.677,28.677,0,0,0,7.46,5.566c3.025,1.683,5.246,2.92,8.652,10.277m7.761-16.8a25.6,25.6,0,0,0,2.174-7.99,28.575,28.575,0,0,0,.183-3.152q.526,1.647,1.057,3.417c3.2,9.8.04,16.742-2.6,20.428-3.064-7.266-2.155-9.459-.81-12.7M20.6,393.081l.06-.683a21.222,21.222,0,0,1-8.575-5.889,16.352,16.352,0,0,0,4.21-1.667,24.93,24.93,0,0,1,7.307-2.684c5.173-.617,12.512,1.989,16.8,9.133-3.73,1.477-11.81,3.9-19.58,1.163l-.221.628Zm43.129,33.557a27.452,27.452,0,0,1,5.648,5.562,16.979,16.979,0,0,1-10.929,4.758c-5.3.189-11.017-2.279-16.925-7.325a12.645,12.645,0,0,0,2.9-1.239c8.037-5,16.116-3.725,19.309-1.756" transform="translate(0.227 99.657)" fill="#f58d12"/>
      <path id="Trazado_68" data-name="Trazado 68" d="M135.252,109.937a1.844,1.844,0,0,1-.241-.015,1.993,1.993,0,0,1-1.742-2.218c3.98-33.13,29.958-36.062,30.22-36.087a1.994,1.994,0,0,1,.392,3.968c-.98.1-23.069,2.765-26.653,32.594a2,2,0,0,1-1.977,1.756" transform="translate(43.902 23.592)" fill="#fcffec"/>
      <path id="Trazado_69" data-name="Trazado 69" d="M359.558,80.818a1.994,1.994,0,0,1-1.994-1.994V66.789a1.994,1.994,0,0,1,3.988,0V78.823a2,2,0,0,1-1.994,1.994" transform="translate(117.803 21.347)" fill="#fcffec"/>
      <path id="Trazado_70" data-name="Trazado 70" d="M356.019,82.283a1.988,1.988,0,0,1-1.41-.584L346.1,73.19a1.994,1.994,0,1,1,2.82-2.82l8.51,8.51a1.994,1.994,0,0,1-1.411,3.4" transform="translate(113.834 22.992)" fill="#fcffec"/>
      <path id="Trazado_71" data-name="Trazado 71" d="M354.553,85.822H342.519a1.994,1.994,0,1,1,0-3.988h12.034a1.994,1.994,0,0,1,0,3.988" transform="translate(112.19 26.961)" fill="#fcffec"/>
      <path id="Trazado_72" data-name="Trazado 72" d="M347.51,99.979a1.994,1.994,0,0,1-1.411-3.4l8.51-8.509a1.994,1.994,0,0,1,2.82,2.82l-8.509,8.51a1.988,1.988,0,0,1-1.411.584" transform="translate(113.834 28.822)" fill="#fcffec"/>
      <path id="Trazado_73" data-name="Trazado 73" d="M359.558,105.842a1.993,1.993,0,0,1-1.994-1.994V91.815a1.994,1.994,0,0,1,3.988,0v12.033a1.994,1.994,0,0,1-1.994,1.994" transform="translate(117.803 29.592)" fill="#fcffec"/>
      <path id="Trazado_74" data-name="Trazado 74" d="M373.714,99.979A1.988,1.988,0,0,1,372.3,99.4l-8.509-8.51a1.994,1.994,0,0,1,2.82-2.82l8.51,8.509a1.994,1.994,0,0,1-1.411,3.4" transform="translate(119.664 28.822)" fill="#fcffec"/>
      <path id="Trazado_75" data-name="Trazado 75" d="M379.579,85.822H367.545a1.994,1.994,0,1,1,0-3.988h12.034a1.994,1.994,0,0,1,0,3.988" transform="translate(120.435 26.961)" fill="#fcffec"/>
      <path id="Trazado_76" data-name="Trazado 76" d="M365.205,82.283a1.994,1.994,0,0,1-1.411-3.4l8.51-8.51a1.994,1.994,0,0,1,2.82,2.82l-8.509,8.51a1.988,1.988,0,0,1-1.411.584" transform="translate(119.664 22.992)" fill="#fcffec"/>
      <path id="Trazado_77" data-name="Trazado 77" d="M397.978,328.863a1.737,1.737,0,0,1-1.736-1.736V315.094a1.736,1.736,0,1,1,3.473,0v12.033a1.737,1.737,0,0,1-1.736,1.736" transform="translate(130.546 103.239)" fill="#fcffec"/>
      <path id="Trazado_78" data-name="Trazado 78" d="M394.439,330.329a1.731,1.731,0,0,1-1.227-.509l-8.51-8.509a1.735,1.735,0,0,1,2.453-2.454l8.511,8.509a1.736,1.736,0,0,1-1.227,2.963" transform="translate(126.577 104.883)" fill="#fcffec"/>
      <path id="Trazado_79" data-name="Trazado 79" d="M392.972,333.868H380.938a1.736,1.736,0,0,1,0-3.471h12.034a1.736,1.736,0,1,1,0,3.471" transform="translate(124.933 108.853)" fill="#fcffec"/>
      <path id="Trazado_80" data-name="Trazado 80" d="M385.929,348.025a1.736,1.736,0,0,1-1.227-2.963l8.511-8.509a1.735,1.735,0,1,1,2.453,2.454l-8.51,8.509a1.731,1.731,0,0,1-1.227.509" transform="translate(126.577 110.714)" fill="#fcffec"/>
      <path id="Trazado_81" data-name="Trazado 81" d="M397.978,353.888a1.737,1.737,0,0,1-1.736-1.736V340.119a1.736,1.736,0,1,1,3.473,0v12.033a1.737,1.737,0,0,1-1.736,1.736" transform="translate(130.546 111.484)" fill="#fcffec"/>
      <path id="Trazado_82" data-name="Trazado 82" d="M412.135,348.025a1.731,1.731,0,0,1-1.227-.509l-8.508-8.509a1.735,1.735,0,0,1,2.453-2.454l8.51,8.509a1.736,1.736,0,0,1-1.227,2.963" transform="translate(132.407 110.714)" fill="#fcffec"/>
      <path id="Trazado_83" data-name="Trazado 83" d="M418,333.868H405.964a1.736,1.736,0,0,1,0-3.471H418a1.736,1.736,0,1,1,0,3.471" transform="translate(133.178 108.853)" fill="#fcffec"/>
      <path id="Trazado_84" data-name="Trazado 84" d="M403.625,330.329a1.736,1.736,0,0,1-1.227-2.963l8.51-8.509a1.735,1.735,0,0,1,2.453,2.454l-8.509,8.509a1.731,1.731,0,0,1-1.227.509" transform="translate(132.407 104.883)" fill="#fcffec"/>
      <path id="Trazado_85" data-name="Trazado 85" d="M245.483,11.982a1.736,1.736,0,0,1-1.736-1.736V1.736a1.736,1.736,0,0,1,3.473,0v8.51a1.736,1.736,0,0,1-1.736,1.736" transform="translate(80.305 0)" fill="#fcffec"/>
      <path id="Trazado_86" data-name="Trazado 86" d="M242.981,13.018a1.725,1.725,0,0,1-1.227-.509l-6.016-6.017a1.734,1.734,0,1,1,2.453-2.453l6.017,6.016a1.736,1.736,0,0,1-1.227,2.963" transform="translate(77.499 1.163)" fill="#fcffec"/>
      <path id="Trazado_87" data-name="Trazado 87" d="M241.944,15.52h-8.509a1.736,1.736,0,1,1,0-3.471h8.509a1.736,1.736,0,1,1,0,3.471" transform="translate(76.336 3.97)" fill="#fcffec"/>
      <path id="Trazado_88" data-name="Trazado 88" d="M236.964,25.53a1.736,1.736,0,0,1-1.227-2.963l6.017-6.016A1.734,1.734,0,1,1,244.207,19l-6.016,6.017a1.725,1.725,0,0,1-1.227.509" transform="translate(77.499 5.285)" fill="#fcffec"/>
      <path id="Trazado_89" data-name="Trazado 89" d="M245.483,29.677a1.736,1.736,0,0,1-1.736-1.736V19.432a1.736,1.736,0,1,1,3.473,0v8.509a1.736,1.736,0,0,1-1.736,1.736" transform="translate(80.305 5.83)" fill="#fcffec"/>
      <path id="Trazado_90" data-name="Trazado 90" d="M255.493,25.53a1.725,1.725,0,0,1-1.227-.509L248.25,19a1.734,1.734,0,1,1,2.453-2.453l6.017,6.016a1.736,1.736,0,0,1-1.227,2.963" transform="translate(81.621 5.285)" fill="#fcffec"/>
      <path id="Trazado_91" data-name="Trazado 91" d="M259.641,15.52h-8.51a1.736,1.736,0,1,1,0-3.471h8.51a1.736,1.736,0,1,1,0,3.471" transform="translate(82.166 3.97)" fill="#fcffec"/>
      <path id="Trazado_92" data-name="Trazado 92" d="M249.477,13.018a1.736,1.736,0,0,1-1.227-2.963l6.017-6.016a1.734,1.734,0,1,1,2.453,2.453L250.7,12.509a1.725,1.725,0,0,1-1.227.509" transform="translate(81.621 1.163)" fill="#fcffec"/>
      <path id="Trazado_93" data-name="Trazado 93" d="M82.308,80.818a1.994,1.994,0,0,1-1.994-1.994V66.789a1.994,1.994,0,0,1,3.988,0V78.823a1.994,1.994,0,0,1-1.994,1.994" transform="translate(26.46 21.347)" fill="#fcffec"/>
      <path id="Trazado_94" data-name="Trazado 94" d="M78.77,82.283a1.988,1.988,0,0,1-1.411-.584l-8.509-8.51a1.994,1.994,0,0,1,2.82-2.82l8.51,8.51a1.994,1.994,0,0,1-1.411,3.4" transform="translate(22.491 22.992)" fill="#fcffec"/>
      <path id="Trazado_95" data-name="Trazado 95" d="M77.3,85.822H65.27a1.994,1.994,0,1,1,0-3.988H77.3a1.994,1.994,0,1,1,0,3.988" transform="translate(20.847 26.961)" fill="#fcffec"/>
      <path id="Trazado_96" data-name="Trazado 96" d="M70.261,99.979a1.994,1.994,0,0,1-1.411-3.4l8.51-8.509a1.994,1.994,0,0,1,2.82,2.82L71.672,99.4a1.988,1.988,0,0,1-1.411.584" transform="translate(22.491 28.822)" fill="#fcffec"/>
      <path id="Trazado_97" data-name="Trazado 97" d="M82.308,105.842a1.993,1.993,0,0,1-1.994-1.994V91.815a1.994,1.994,0,0,1,3.988,0v12.033a1.993,1.993,0,0,1-1.994,1.994" transform="translate(26.46 29.592)" fill="#fcffec"/>
      <path id="Trazado_98" data-name="Trazado 98" d="M96.465,99.979a1.988,1.988,0,0,1-1.411-.584l-8.509-8.51a1.994,1.994,0,0,1,2.82-2.82l8.51,8.509a1.994,1.994,0,0,1-1.411,3.4" transform="translate(28.321 28.822)" fill="#fcffec"/>
      <path id="Trazado_99" data-name="Trazado 99" d="M102.331,85.822H90.3a1.994,1.994,0,0,1,0-3.988h12.036a1.994,1.994,0,0,1,0,3.988" transform="translate(29.092 26.961)" fill="#fcffec"/>
      <path id="Trazado_100" data-name="Trazado 100" d="M87.956,82.283a1.994,1.994,0,0,1-1.411-3.4l8.51-8.51a1.994,1.994,0,0,1,2.82,2.82L89.367,81.7a1.988,1.988,0,0,1-1.411.584" transform="translate(28.321 22.992)" fill="#fcffec"/>
      <path id="Trazado_101" data-name="Trazado 101" d="M18.774,251.853a1.737,1.737,0,0,1-1.736-1.736V238.083a1.736,1.736,0,0,1,3.473,0v12.033a1.737,1.737,0,0,1-1.736,1.736" transform="translate(5.613 77.867)" fill="#fcffec"/>
      <path id="Trazado_102" data-name="Trazado 102" d="M15.235,253.318a1.731,1.731,0,0,1-1.227-.509L5.5,244.3a1.735,1.735,0,0,1,2.453-2.454l8.51,8.509a1.736,1.736,0,0,1-1.227,2.963" transform="translate(1.644 79.511)" fill="#fcffec"/>
      <path id="Trazado_103" data-name="Trazado 103" d="M13.769,256.857H1.735a1.736,1.736,0,0,1,0-3.471H13.769a1.736,1.736,0,1,1,0,3.471" transform="translate(0 83.481)" fill="#fcffec"/>
      <path id="Trazado_104" data-name="Trazado 104" d="M6.726,271.014A1.736,1.736,0,0,1,5.5,268.051l8.51-8.509A1.735,1.735,0,0,1,16.462,262L7.953,270.5a1.731,1.731,0,0,1-1.227.509" transform="translate(1.644 85.341)" fill="#fcffec"/>
      <path id="Trazado_105" data-name="Trazado 105" d="M18.774,276.879a1.737,1.737,0,0,1-1.736-1.736V263.109a1.736,1.736,0,1,1,3.473,0v12.033a1.737,1.737,0,0,1-1.736,1.736" transform="translate(5.613 86.112)" fill="#fcffec"/>
      <path id="Trazado_106" data-name="Trazado 106" d="M32.932,271.014A1.731,1.731,0,0,1,31.7,270.5L23.2,262a1.735,1.735,0,0,1,2.453-2.454l8.51,8.509a1.736,1.736,0,0,1-1.227,2.963" transform="translate(7.475 85.341)" fill="#fcffec"/>
      <path id="Trazado_107" data-name="Trazado 107" d="M38.8,256.857H26.761a1.736,1.736,0,0,1,0-3.471H38.8a1.736,1.736,0,1,1,0,3.471" transform="translate(8.245 83.481)" fill="#fcffec"/>
      <path id="Trazado_108" data-name="Trazado 108" d="M24.422,253.318a1.736,1.736,0,0,1-1.227-2.963l8.51-8.509a1.735,1.735,0,0,1,2.453,2.454l-8.509,8.509a1.731,1.731,0,0,1-1.227.509" transform="translate(7.474 79.511)" fill="#fcffec"/>
    </g>
  </g>
</svg>
