<svg id="Grupo_16" data-name="Grupo 16" xmlns="http://www.w3.org/2000/svg" xmlns:xlink="http://www.w3.org/1999/xlink" width="33.661" height="40" viewBox="0 0 33.661 40">
  <defs>
    <clipPath id="clip-path">
      <rect id="Rectángulo_17" data-name="Rectángulo 17" width="33.661" height="40" fill="#fff"/>
    </clipPath>
  </defs>
  <g id="Grupo_15" data-name="Grupo 15" clip-path="url(#clip-path)">
    <path id="Trazado_178" data-name="Trazado 178" d="M31.51,15.473a5.95,5.95,0,0,0-2.945-.938,5.788,5.788,0,0,0-5.449,3.045q-3.762,6.488-7.506,12.987a5.748,5.748,0,0,0-.807,2.375c-.048.535-.1,1.07-.119,1.606-.054,1.409-.1,2.819-.134,4.228a4.045,4.045,0,0,0,.068.558c-.145.012-.288.035-.431.035-2.72,0-5.439.017-8.159,0A5.868,5.868,0,0,1,.139,34.65a6.185,6.185,0,0,1-.133-1.324Q0,19.707,0,6.089A5.876,5.876,0,0,1,5.956.027q9.795-.056,19.59,0a5.88,5.88,0,0,1,5.964,6.1q0,4.4,0,8.8v.546m-17.726-3.66v0c1.966,0,3.932.021,5.9-.008a1.949,1.949,0,1,0,.034-3.9q-5.92-.031-11.841,0a1.955,1.955,0,1,0,.151,3.907c1.92.015,3.84,0,5.759,0M12.2,15.775v0c-1.444,0-2.888-.025-4.331.008a1.9,1.9,0,0,0-1.924,1.932A1.935,1.935,0,0,0,7.9,19.686q4.262.03,8.524,0a1.955,1.955,0,1,0-.076-3.908c-1.382-.02-2.765,0-4.147,0m-2.181,7.873c-.721,0-1.442-.009-2.163,0a1.942,1.942,0,0,0,0,3.884q2.162.019,4.325,0a1.943,1.943,0,0,0,0-3.886c-.721-.009-1.442,0-2.162,0" transform="translate(0 0.001)" fill="#fff"/>
    <path id="Trazado_179" data-name="Trazado 179" d="M149.534,168.807c.088-1.363.162-2.727.276-4.088a2.261,2.261,0,0,1,.3-.9q3.745-6.521,7.515-13.027a1.944,1.944,0,0,1,2.834-.772q1.622.915,3.227,1.86a1.971,1.971,0,0,1,.753,2.88q-3.732,6.476-7.487,12.94a3.045,3.045,0,0,1-.873.919c-1.068.747-2.179,1.433-3.256,2.169a2.043,2.043,0,0,1-2.288.223,1.937,1.937,0,0,1-.993-2.062,1.326,1.326,0,0,0,0-.138h-.01" transform="translate(-131.117 -131.265)" fill="#fff"/>
  </g>
</svg>
