<svg xmlns="http://www.w3.org/2000/svg" xmlns:xlink="http://www.w3.org/1999/xlink" width="172.345" height="142.652" viewBox="0 0 172.345 142.652">
  <defs>
    <clipPath id="clip-path">
      <rect id="Rectángulo_1" data-name="Rectángulo 1" width="172.345" height="142.652" fill="none"/>
    </clipPath>
  </defs>
  <g id="Grupo_1" data-name="Grupo 1" clip-path="url(#clip-path)">
    <path id="Trazado_1" data-name="Trazado 1" d="M10.656,121.64a11.542,11.542,0,0,1-5.57-1.3,9.227,9.227,0,0,1-3.748-3.719A11.8,11.8,0,0,1,0,110.819v-.888a12.089,12.089,0,0,1,1.257-5.606,9.319,9.319,0,0,1,3.6-3.838,10.723,10.723,0,0,1,5.568-1.392,14.458,14.458,0,0,1,4.267.617,10.463,10.463,0,0,1,3.68,2.017v5.463H14.81l-.481-3.281a7.168,7.168,0,0,0-1.085-.6,5.993,5.993,0,0,0-1.233-.391,7.208,7.208,0,0,0-1.43-.136,5.4,5.4,0,0,0-3.056.858,5.512,5.512,0,0,0-1.994,2.446,9.423,9.423,0,0,0-.7,3.816v.918a9.1,9.1,0,0,0,.723,3.762,5.725,5.725,0,0,0,2.054,2.5,5.489,5.489,0,0,0,3.123.888,8.688,8.688,0,0,0,1.851-.2,10.449,10.449,0,0,0,1.746-.534l.5-3.085h3.551v5.374a12.725,12.725,0,0,1-3.265,1.5,14.755,14.755,0,0,1-4.455.624" transform="translate(0 -42.644)" fill="#172532"/>
    <path id="Trazado_2" data-name="Trazado 2" d="M43.534,125.9a8.042,8.042,0,0,1-4.139-1.031,7.162,7.162,0,0,1-2.732-2.829,8.467,8.467,0,0,1-.971-4.087v-.572a10.152,10.152,0,0,1,.888-4.35,6.955,6.955,0,0,1,2.559-2.972,7.149,7.149,0,0,1,4-1.061,7.5,7.5,0,0,1,3.733.858,5.555,5.555,0,0,1,2.311,2.505,9.242,9.242,0,0,1,.79,4.012v2.559H40.705l-.016.105a4.087,4.087,0,0,0,.528,1.632A3.006,3.006,0,0,0,42.4,121.8a3.833,3.833,0,0,0,1.859.415,8.234,8.234,0,0,0,2.13-.272,9.885,9.885,0,0,0,2.07-.827l1.188,2.95a9.41,9.41,0,0,1-2.6,1.309,10.858,10.858,0,0,1-3.507.527m-2.8-10.054h4.786v-.391a4.837,4.837,0,0,0-.226-1.573,1.947,1.947,0,0,0-.722-1,2.279,2.279,0,0,0-1.324-.346,2.163,2.163,0,0,0-1.377.422,2.6,2.6,0,0,0-.812,1.151,6.784,6.784,0,0,0-.384,1.663Z" transform="translate(-15.36 -46.907)" fill="#172532"/>
    <path id="Trazado_3" data-name="Trazado 3" d="M64.752,125.587v-2.86l2-.466v-9.618l-2.288-.467V109.3h6.818l.15,2,.03.391a4.93,4.93,0,0,1,1.415-2.032A3.258,3.258,0,0,1,74.956,109a6.25,6.25,0,0,1,.805.06,6.02,6.02,0,0,1,.88.181l-.5,4.439-2.227-.105a2.684,2.684,0,0,0-1.37.248,3.054,3.054,0,0,0-.948.851v7.586l2,.466v2.86Z" transform="translate(-27.742 -46.907)" fill="#172532"/>
    <path id="Trazado_4" data-name="Trazado 4" d="M93.76,125.815l-4.65-13.124-1.791-.286v-2.874h8.232v2.859l-1.58.3,2.092,6.8.346,1.249h.09l.422-1.249,2.484-6.788-1.942-.316v-2.859h8.218V112.4l-1.837.33-5.057,13.079Z" transform="translate(-37.576 -47.135)" fill="#172532"/>
    <path id="Trazado_5" data-name="Trazado 5" d="M129.084,125.9a8.036,8.036,0,0,1-4.139-1.031,7.154,7.154,0,0,1-2.732-2.829,8.467,8.467,0,0,1-.971-4.087v-.572a10.136,10.136,0,0,1,.888-4.35,6.952,6.952,0,0,1,2.558-2.972,7.152,7.152,0,0,1,4-1.061,7.492,7.492,0,0,1,3.732.858,5.555,5.555,0,0,1,2.311,2.505,9.225,9.225,0,0,1,.79,4.012v2.559h-9.271l-.015.105a4.078,4.078,0,0,0,.527,1.632,3,3,0,0,0,1.181,1.129,3.83,3.83,0,0,0,1.859.415,8.24,8.24,0,0,0,2.13-.272,9.869,9.869,0,0,0,2.069-.827l1.189,2.95a9.422,9.422,0,0,1-2.6,1.309,10.857,10.857,0,0,1-3.506.527m-2.8-10.054h4.786v-.391a4.869,4.869,0,0,0-.225-1.573,1.953,1.953,0,0,0-.722-1,2.284,2.284,0,0,0-1.324-.346,2.161,2.161,0,0,0-1.377.422,2.614,2.614,0,0,0-.813,1.151,6.836,6.836,0,0,0-.384,1.663Z" transform="translate(-52.175 -46.907)" fill="#172532"/>
    <path id="Trazado_6" data-name="Trazado 6" d="M157.177,125.9a7.664,7.664,0,0,1-4.1-1.061,7.073,7.073,0,0,1-2.657-2.92,9.353,9.353,0,0,1-.933-4.251v-.406a9.268,9.268,0,0,1,.956-4.289,7.18,7.18,0,0,1,2.671-2.92A7.554,7.554,0,0,1,157.147,109a9.923,9.923,0,0,1,3.89.693,9.659,9.659,0,0,1,2.6,1.535l-.06,4.906h-3.612l-.618-2.934a2.121,2.121,0,0,0-.79-.5,2.583,2.583,0,0,0-.926-.189,3.08,3.08,0,0,0-1.9.543,3.117,3.117,0,0,0-1.061,1.594,8.677,8.677,0,0,0-.338,2.619v.406a7.087,7.087,0,0,0,.406,2.634,3.158,3.158,0,0,0,1.069,1.453,2.629,2.629,0,0,0,3.086-.083,3.076,3.076,0,0,0,.888-1.565h4.078l.06.09a8.7,8.7,0,0,1-1.069,3.108,4.959,4.959,0,0,1-2.137,1.935,8.158,8.158,0,0,1-3.536.661" transform="translate(-64.329 -46.907)" fill="#172532"/>
    <path id="Trazado_7" data-name="Trazado 7" d="M185.887,125.9a8.042,8.042,0,0,1-4.139-1.031,7.162,7.162,0,0,1-2.732-2.829,8.466,8.466,0,0,1-.971-4.087v-.572a10.152,10.152,0,0,1,.888-4.35,6.955,6.955,0,0,1,2.559-2.972,7.149,7.149,0,0,1,4-1.061,7.5,7.5,0,0,1,3.733.858,5.555,5.555,0,0,1,2.311,2.505,9.242,9.242,0,0,1,.79,4.012v2.559h-9.271l-.016.105a4.087,4.087,0,0,0,.528,1.632,3.006,3.006,0,0,0,1.181,1.129,3.833,3.833,0,0,0,1.859.415,8.234,8.234,0,0,0,2.13-.272,9.884,9.884,0,0,0,2.07-.827l1.188,2.95a9.411,9.411,0,0,1-2.6,1.309,10.858,10.858,0,0,1-3.507.527m-2.8-10.054h4.786v-.391a4.836,4.836,0,0,0-.226-1.573,1.947,1.947,0,0,0-.722-1,2.279,2.279,0,0,0-1.324-.346,2.163,2.163,0,0,0-1.377.422,2.6,2.6,0,0,0-.812,1.151,6.783,6.783,0,0,0-.384,1.663Z" transform="translate(-76.62 -46.907)" fill="#172532"/>
    <path id="Trazado_8" data-name="Trazado 8" d="M207.1,125.587v-2.86l2-.466v-9.618l-2.288-.467V109.3h6.818l.15,2,.03.391a4.93,4.93,0,0,1,1.415-2.032,3.258,3.258,0,0,1,2.077-.663,6.25,6.25,0,0,1,.805.06,6.021,6.021,0,0,1,.88.181l-.5,4.439-2.227-.105a2.684,2.684,0,0,0-1.37.248,3.053,3.053,0,0,0-.948.851v7.586l2,.466v2.86Z" transform="translate(-89.001 -46.907)" fill="#172532"/>
    <path id="Trazado_9" data-name="Trazado 9" d="M229.747,120.38v-2.86l2.016-.467v-9.618l-2.3-.467V104.1h7.134v12.958l2.016.467v2.86Zm1.49-19.37,3.055-4.108h5.027l.031.089-4.184,4.019h-3.928Z" transform="translate(-98.745 -41.7)" fill="#172532"/>
    <path id="Trazado_10" data-name="Trazado 10" d="M253.426,125.9a5.508,5.508,0,0,1-3.861-1.324,4.969,4.969,0,0,1-.632-6.246,5.322,5.322,0,0,1,2.461-1.837,10.941,10.941,0,0,1,4.078-.662h1.941V114.75a2.614,2.614,0,0,0-.624-1.784,2.4,2.4,0,0,0-1.9-.715,3.737,3.737,0,0,0-1.122.159,3.549,3.549,0,0,0-.91.428l-.346,2.107h-3.447l-.06-4.365a16.767,16.767,0,0,1,2.83-1.128,11.618,11.618,0,0,1,3.356-.452,8.1,8.1,0,0,1,5.155,1.5,5.169,5.169,0,0,1,1.9,4.3v6.351c0,.231,0,.454.007.67a3.574,3.574,0,0,0,.068.624l1.716.271v2.86h-5.794q-.181-.346-.384-.813a3.856,3.856,0,0,1-.279-.933,5.89,5.89,0,0,1-1.746,1.5,4.845,4.845,0,0,1-2.407.558m1.384-3.492a3.421,3.421,0,0,0,1.453-.324,3.086,3.086,0,0,0,1.151-.9v-2.468H255.5a2.9,2.9,0,0,0-1.919.565,1.779,1.779,0,0,0-.67,1.421,1.57,1.57,0,0,0,.52,1.25,2.024,2.024,0,0,0,1.376.451" transform="translate(-106.772 -46.907)" fill="#172532"/>
    <path id="Trazado_11" data-name="Trazado 11" d="M285.9,125.926a16.634,16.634,0,0,1-3.483-.346,14.521,14.521,0,0,1-3-.978l-.06-4.846h3.311l.587,2.362a5.179,5.179,0,0,0,.979.361,4.932,4.932,0,0,0,1.294.152,3.254,3.254,0,0,0,1.911-.415,1.249,1.249,0,0,0,.542-1.031,1.365,1.365,0,0,0-.595-1.076,6.251,6.251,0,0,0-2.446-.835,8.4,8.4,0,0,1-4.236-1.882,4.4,4.4,0,0,1-1.363-3.311A4.9,4.9,0,0,1,280,111.59a4.686,4.686,0,0,1,2.084-1.836,8.475,8.475,0,0,1,3.717-.7,16.643,16.643,0,0,1,3.44.338,11.145,11.145,0,0,1,2.656.866l.016,4.68H288.6l-.452-2.123a2.7,2.7,0,0,0-.865-.406,4.163,4.163,0,0,0-1.106-.136,2.663,2.663,0,0,0-1.626.415,1.277,1.277,0,0,0-.542,1.061,1.405,1.405,0,0,0,.211.729,1.951,1.951,0,0,0,.828.663,8.4,8.4,0,0,0,1.821.579,10.591,10.591,0,0,1,4.3,1.769,3.975,3.975,0,0,1,1.392,3.289,4.632,4.632,0,0,1-1.686,3.74,7.59,7.59,0,0,1-4.967,1.407" transform="translate(-120.211 -46.93)" fill="#172532"/>
    <path id="Trazado_12" data-name="Trazado 12" d="M73,168.608a11.525,11.525,0,0,1-4.7-.894,6.964,6.964,0,0,1-3.131-2.624,7.588,7.588,0,0,1-1.111-4.189v-11l-2.266-.463v-2.847h9.348v2.847l-2.281.463v11a4.719,4.719,0,0,0,.491,2.274,3.084,3.084,0,0,0,1.417,1.342,5.138,5.138,0,0,0,2.221.44,5.3,5.3,0,0,0,2.274-.44,3.074,3.074,0,0,0,1.424-1.342,4.712,4.712,0,0,0,.492-2.274v-11l-2.266-.463v-2.847h9.347v2.847l-2.281.463v11a7.451,7.451,0,0,1-1.132,4.175,7.159,7.159,0,0,1-3.146,2.631,11.391,11.391,0,0,1-4.7.9" transform="translate(-26.591 -63.082)" fill="#f0730d"/>
    <path id="Trazado_13" data-name="Trazado 13" d="M102.916,172.283V169.45l1.982-.462v-9.526L102.618,159v-2.847H109.4l.179,2.281a5.854,5.854,0,0,1,1.99-1.9,5.29,5.29,0,0,1,2.677-.678,4.611,4.611,0,0,1,3.674,1.535q1.336,1.535,1.335,4.846v6.753l1.983.462v2.833h-8.483V169.45l1.7-.462v-6.753a2.945,2.945,0,0,0-.588-2.072,2.243,2.243,0,0,0-1.692-.611,3.02,3.02,0,0,0-1.447.328,2.973,2.973,0,0,0-1.044.954v8.155l1.551.462v2.833Z" transform="translate(-44.16 -67.07)" fill="#f0730d"/>
    <path id="Trazado_14" data-name="Trazado 14" d="M136.975,167.124v-2.833l2-.463V154.3l-2.281-.462v-2.847h7.067v12.836l2,.463v2.833Zm1.849-23.258h4.95v3.891h-4.95Z" transform="translate(-58.824 -61.911)" fill="#f0730d"/>
    <path id="Trazado_15" data-name="Trazado 15" d="M161.02,167.436a5.447,5.447,0,0,1-3.281-.991,6.221,6.221,0,0,1-2.1-2.8,11.133,11.133,0,0,1-.731-4.2v-.314a12.155,12.155,0,0,1,.738-4.428,6.721,6.721,0,0,1,2.1-2.951,5.107,5.107,0,0,1,3.227-1.058,4.645,4.645,0,0,1,2.274.529,5.2,5.2,0,0,1,1.677,1.5v-5.546l-2.3-.462v-2.848h7.1v19.963l1.983.462v2.833h-6.143l-.358-1.983a5.211,5.211,0,0,1-1.766,1.715,4.814,4.814,0,0,1-2.422.581m1.461-3.7a3.074,3.074,0,0,0,1.408-.321,2.663,2.663,0,0,0,1.036-.932v-6.665a2.941,2.941,0,0,0-1.021-1.058,2.646,2.646,0,0,0-1.393-.373,2.232,2.232,0,0,0-1.617.6,3.51,3.51,0,0,0-.9,1.662,9.731,9.731,0,0,0-.283,2.482v.314a6.593,6.593,0,0,0,.626,3.16,2.247,2.247,0,0,0,2.147,1.134" transform="translate(-66.662 -61.911)" fill="#f0730d"/>
    <path id="Trazado_16" data-name="Trazado 16" d="M192.1,172.6a5.458,5.458,0,0,1-3.824-1.311,4.922,4.922,0,0,1-.626-6.187,5.271,5.271,0,0,1,2.437-1.819,10.846,10.846,0,0,1,4.04-.656h1.924v-1.074a2.589,2.589,0,0,0-.619-1.766,2.373,2.373,0,0,0-1.886-.709,3.712,3.712,0,0,0-1.111.157,3.524,3.524,0,0,0-.9.425l-.342,2.087h-3.415l-.059-4.324a16.709,16.709,0,0,1,2.8-1.118,11.56,11.56,0,0,1,3.325-.448,8.019,8.019,0,0,1,5.106,1.491,5.116,5.116,0,0,1,1.886,4.264V167.9c0,.229,0,.451.008.663a3.521,3.521,0,0,0,.067.619l1.7.268v2.833h-5.74q-.179-.343-.38-.8a3.827,3.827,0,0,1-.276-.925,5.853,5.853,0,0,1-1.729,1.491,4.814,4.814,0,0,1-2.386.551m1.372-3.458a3.393,3.393,0,0,0,1.438-.321,3.072,3.072,0,0,0,1.141-.888v-2.445h-1.894a2.872,2.872,0,0,0-1.9.559,1.765,1.765,0,0,0-.664,1.409,1.554,1.554,0,0,0,.514,1.237,2.005,2.005,0,0,0,1.365.448" transform="translate(-80.401 -67.069)" fill="#f0730d"/>
    <path id="Trazado_17" data-name="Trazado 17" d="M224.269,172.617a16.492,16.492,0,0,1-3.451-.342,14.4,14.4,0,0,1-2.974-.969l-.06-4.8h3.281l.581,2.34a5.129,5.129,0,0,0,.968.358,4.929,4.929,0,0,0,1.282.15,3.223,3.223,0,0,0,1.893-.411,1.239,1.239,0,0,0,.538-1.021,1.354,1.354,0,0,0-.589-1.066,6.207,6.207,0,0,0-2.423-.827,8.314,8.314,0,0,1-4.2-1.863,4.356,4.356,0,0,1-1.35-3.28,4.853,4.853,0,0,1,.648-2.468,4.652,4.652,0,0,1,2.065-1.819,8.408,8.408,0,0,1,3.682-.693,16.447,16.447,0,0,1,3.407.336,11.057,11.057,0,0,1,2.632.857l.014,4.637h-3.28l-.447-2.1a2.68,2.68,0,0,0-.857-.4,4.141,4.141,0,0,0-1.1-.134,2.627,2.627,0,0,0-1.61.411,1.265,1.265,0,0,0-.537,1.051,1.387,1.387,0,0,0,.209.722,1.92,1.92,0,0,0,.82.656,8.328,8.328,0,0,0,1.8.574,10.493,10.493,0,0,1,4.257,1.752,3.937,3.937,0,0,1,1.38,3.257,4.585,4.585,0,0,1-1.67,3.7,7.508,7.508,0,0,1-4.92,1.394" transform="translate(-93.714 -67.092)" fill="#f0730d"/>
    <path id="Trazado_18" data-name="Trazado 18" d="M106.1,66.962c3.1-3.864,1.769-10.027,1.711-10.287a.769.769,0,0,0-1.167-.479c-.007.005-.628.4-1.41.817a14.3,14.3,0,0,0,.091-7.584.763.763,0,0,0-.452-.507.773.773,0,0,0-.674.048c-.034.019-.276.156-.735.363a8.493,8.493,0,0,0-.934-4.546.771.771,0,0,0-.958-.338l-.021.009a9.551,9.551,0,0,0-2.059-4.266.752.752,0,0,0-.6-.26.771.771,0,0,0-.581.293,10.187,10.187,0,0,0-2.153,4.225.79.79,0,0,0-.56-.006.768.768,0,0,0-.43.4,9.444,9.444,0,0,0-.594,4.581,10.426,10.426,0,0,1-.947-.457.768.768,0,0,0-1.13.455,14.305,14.305,0,0,0,.087,7.578c-.775-.412-1.39-.8-1.4-.811a.768.768,0,0,0-1.164.48c-.058.259-1.4,6.408,1.712,10.288a8.4,8.4,0,0,0,6.414,2.958v3.9a.769.769,0,0,0,1.538,0v-3.9a8.4,8.4,0,0,0,6.418-2.958m-6.028-21.216a3.67,3.67,0,0,1-1.217,2.348,3.28,3.28,0,0,1-1.193-1.853c-.267-1.2.154-2.629,1.251-4.243a6.3,6.3,0,0,1,1.159,3.748m-.689,3.915a5.424,5.424,0,0,0,2.153-3.31,6.244,6.244,0,0,1,.216,3.781l-.036.118a.518.518,0,0,0-.055.154,5.4,5.4,0,0,1-1.98,2.5V51.764a.769.769,0,0,0-1.538,0v1.078a5.925,5.925,0,0,1-1.956-6.154,4.926,4.926,0,0,0,2.378,3.051.786.786,0,0,0,.817-.078m-.471,9.746a.77.77,0,0,0,.769-.768v-3.91A7.413,7.413,0,0,0,103,51.19c.42-.162.766-.309,1.035-.429.276,1.586.567,4.756-.892,7.111a6.276,6.276,0,0,1-4.237,2.769,6.277,6.277,0,0,1-4.237-2.769c-1.458-2.356-1.167-5.525-.89-7.111.327.146.762.329,1.3.529a7.585,7.585,0,0,0,3.062,3.439v3.908a.769.769,0,0,0,.768.768m0,7.9a.77.77,0,0,0,.769-.768V62.042a7.731,7.731,0,0,0,4.415-2.84,15.118,15.118,0,0,0,2.383-1.118c.223,1.855.351,5.511-1.582,7.921-1.275,1.588-3.288,2.4-5.983,2.4S94.2,67.592,92.928,66c-1.932-2.409-1.8-6.065-1.582-7.919A15.2,15.2,0,0,0,93.713,59.2a7.734,7.734,0,0,0,4.428,2.848v4.49a.769.769,0,0,0,.768.768" transform="translate(-38.592 -17.184)" fill="#172532"/>
    <path id="Trazado_19" data-name="Trazado 19" d="M78.509,82.572c1.667-2.08.952-5.4.921-5.537a.413.413,0,0,0-.628-.257s-.338.216-.759.439a7.688,7.688,0,0,0,.048-4.082.41.41,0,0,0-.243-.273.415.415,0,0,0-.363.026c-.018.01-.149.084-.4.2a4.575,4.575,0,0,0-.5-2.447.415.415,0,0,0-.516-.182l-.011,0a5.142,5.142,0,0,0-1.109-2.3.407.407,0,0,0-.322-.14.416.416,0,0,0-.313.158,5.49,5.49,0,0,0-1.159,2.274.426.426,0,0,0-.3,0,.414.414,0,0,0-.231.218,5.078,5.078,0,0,0-.32,2.465c-.321-.14-.489-.234-.51-.246a.414.414,0,0,0-.608.246,7.705,7.705,0,0,0,.047,4.079c-.417-.222-.748-.433-.754-.436a.413.413,0,0,0-.626.258c-.032.14-.752,3.45.922,5.538a4.518,4.518,0,0,0,3.453,1.592v2.1a.414.414,0,0,0,.828,0v-2.1a4.521,4.521,0,0,0,3.454-1.592m-3.245-11.42a1.972,1.972,0,0,1-.655,1.264,1.764,1.764,0,0,1-.641-1,3.015,3.015,0,0,1,.673-2.284,3.388,3.388,0,0,1,.623,2.018m-.371,2.107a2.921,2.921,0,0,0,1.159-1.781,3.362,3.362,0,0,1,.116,2.035l-.019.064a.285.285,0,0,0-.03.083A2.913,2.913,0,0,1,75.054,75v-.613a.414.414,0,0,0-.828,0v.58a3.189,3.189,0,0,1-1.053-3.313A2.652,2.652,0,0,0,74.454,73.3a.422.422,0,0,0,.439-.042M74.64,78.5a.414.414,0,0,0,.414-.414v-2.1a4,4,0,0,0,1.788-1.9c.226-.087.412-.166.557-.231a5.774,5.774,0,0,1-.48,3.828,3.378,3.378,0,0,1-2.281,1.491,3.38,3.38,0,0,1-2.28-1.49,5.779,5.779,0,0,1-.48-3.828c.176.079.41.177.7.285a4.082,4.082,0,0,0,1.648,1.851v2.1a.414.414,0,0,0,.414.414m0,4.25a.414.414,0,0,0,.414-.414V79.924a4.164,4.164,0,0,0,2.377-1.53,8.128,8.128,0,0,0,1.282-.6,6,6,0,0,1-.851,4.263,4.659,4.659,0,0,1-6.442,0,6,6,0,0,1-.852-4.262,8.214,8.214,0,0,0,1.274.6,4.16,4.16,0,0,0,2.383,1.532v2.417a.414.414,0,0,0,.414.414" transform="translate(-29.982 -29.272)" fill="#172532"/>
    <path id="Trazado_20" data-name="Trazado 20" d="M224.26,82.572c1.667-2.08.952-5.4.921-5.537a.413.413,0,0,0-.628-.257s-.338.216-.759.439a7.688,7.688,0,0,0,.048-4.082.41.41,0,0,0-.243-.273.415.415,0,0,0-.363.026c-.018.01-.149.084-.4.2a4.575,4.575,0,0,0-.5-2.447.415.415,0,0,0-.516-.182l-.011,0a5.142,5.142,0,0,0-1.109-2.3.406.406,0,0,0-.322-.14.416.416,0,0,0-.313.158,5.49,5.49,0,0,0-1.159,2.274.426.426,0,0,0-.3,0,.414.414,0,0,0-.231.218,5.079,5.079,0,0,0-.32,2.465c-.321-.14-.489-.234-.51-.246a.414.414,0,0,0-.608.246,7.7,7.7,0,0,0,.047,4.079c-.417-.222-.748-.433-.754-.436a.413.413,0,0,0-.626.258c-.032.14-.752,3.45.922,5.538a4.518,4.518,0,0,0,3.453,1.592v2.1a.414.414,0,0,0,.828,0v-2.1a4.521,4.521,0,0,0,3.454-1.592m-3.245-11.42a1.972,1.972,0,0,1-.655,1.264,1.765,1.765,0,0,1-.641-1,3.015,3.015,0,0,1,.673-2.284,3.389,3.389,0,0,1,.623,2.018m-.371,2.107a2.921,2.921,0,0,0,1.159-1.781,3.362,3.362,0,0,1,.116,2.035l-.019.064a.284.284,0,0,0-.03.083A2.913,2.913,0,0,1,220.805,75v-.613a.414.414,0,0,0-.828,0v.58a3.189,3.189,0,0,1-1.053-3.313A2.652,2.652,0,0,0,220.2,73.3a.422.422,0,0,0,.439-.042m-.253,5.246a.414.414,0,0,0,.414-.414v-2.1a4,4,0,0,0,1.788-1.9c.226-.087.412-.166.557-.231a5.774,5.774,0,0,1-.48,3.828,2.49,2.49,0,0,1-4.561,0,5.779,5.779,0,0,1-.48-3.828c.176.079.41.177.7.285a4.082,4.082,0,0,0,1.648,1.851v2.1a.414.414,0,0,0,.414.414m0,4.25a.414.414,0,0,0,.414-.414V79.924a4.164,4.164,0,0,0,2.377-1.53,8.125,8.125,0,0,0,1.282-.6,6,6,0,0,1-.851,4.263,4.659,4.659,0,0,1-6.442,0,6,6,0,0,1-.852-4.262,8.213,8.213,0,0,0,1.274.6,4.16,4.16,0,0,0,2.383,1.532v2.417a.414.414,0,0,0,.414.414" transform="translate(-92.704 -29.272)" fill="#172532"/>
    <path id="Trazado_21" data-name="Trazado 21" d="M196.943,66.962c3.1-3.864,1.769-10.027,1.711-10.287a.769.769,0,0,0-1.167-.479c-.007.005-.629.4-1.41.817a14.294,14.294,0,0,0,.09-7.584.763.763,0,0,0-.452-.507.773.773,0,0,0-.674.048c-.034.019-.277.156-.736.363a8.5,8.5,0,0,0-.933-4.546.772.772,0,0,0-.958-.338l-.022.009a9.551,9.551,0,0,0-2.059-4.266.751.751,0,0,0-.6-.26.77.77,0,0,0-.581.293A10.18,10.18,0,0,0,187,44.449a.79.79,0,0,0-.56-.006.768.768,0,0,0-.431.4,9.46,9.46,0,0,0-.594,4.581,10.359,10.359,0,0,1-.947-.457.769.769,0,0,0-1.131.455,14.306,14.306,0,0,0,.087,7.578c-.775-.412-1.389-.8-1.4-.811a.769.769,0,0,0-1.164.48c-.059.259-1.4,6.408,1.712,10.288a8.4,8.4,0,0,0,6.414,2.958v3.9a.769.769,0,0,0,1.538,0v-3.9a8.4,8.4,0,0,0,6.418-2.958m-6.028-21.216a3.667,3.667,0,0,1-1.217,2.348,3.276,3.276,0,0,1-1.192-1.853c-.267-1.2.154-2.629,1.25-4.243a6.3,6.3,0,0,1,1.159,3.748m-.689,3.915a5.427,5.427,0,0,0,2.153-3.31,6.244,6.244,0,0,1,.216,3.781l-.036.118a.513.513,0,0,0-.054.154,5.406,5.406,0,0,1-1.98,2.5V51.764a.769.769,0,0,0-1.538,0v1.078a5.924,5.924,0,0,1-1.956-6.154,4.924,4.924,0,0,0,2.378,3.051.785.785,0,0,0,.816-.078m-.47,9.746a.77.77,0,0,0,.768-.768v-3.91a7.41,7.41,0,0,0,3.321-3.539c.42-.162.766-.309,1.035-.429.276,1.586.567,4.756-.891,7.111a6.277,6.277,0,0,1-4.237,2.769,6.275,6.275,0,0,1-4.237-2.769c-1.458-2.356-1.167-5.525-.891-7.111.328.146.762.329,1.3.529a7.589,7.589,0,0,0,3.062,3.439v3.908a.77.77,0,0,0,.769.768m0,7.9a.77.77,0,0,0,.768-.768V62.042a7.729,7.729,0,0,0,4.415-2.84,15.07,15.07,0,0,0,2.383-1.118c.223,1.855.351,5.511-1.581,7.921-1.275,1.588-3.288,2.4-5.983,2.4s-4.709-.813-5.984-2.4c-1.932-2.409-1.8-6.065-1.583-7.919a15.251,15.251,0,0,0,2.367,1.113,7.734,7.734,0,0,0,4.428,2.848v4.49a.77.77,0,0,0,.769.768" transform="translate(-77.686 -17.184)" fill="#172532"/>
    <path id="Trazado_22" data-name="Trazado 22" d="M151.66,44.77c5.129-6.4,2.931-16.608,2.835-17.039a1.273,1.273,0,0,0-1.933-.793c-.012.008-1.041.665-2.335,1.352,2-5.831.23-12.272.149-12.561a1.262,1.262,0,0,0-.749-.84,1.279,1.279,0,0,0-1.117.08c-.056.032-.458.257-1.218.6a14.072,14.072,0,0,0-1.546-7.53,1.277,1.277,0,0,0-1.587-.559l-.035.014A15.822,15.822,0,0,0,140.712.43,1.244,1.244,0,0,0,139.719,0a1.278,1.278,0,0,0-.963.485,16.875,16.875,0,0,0-3.566,7,1.3,1.3,0,0,0-.927-.01,1.274,1.274,0,0,0-.713.67,15.653,15.653,0,0,0-.984,7.587A17.3,17.3,0,0,1,131,14.972a1.272,1.272,0,0,0-1.871.754c-.082.291-1.851,6.725.144,12.552-1.283-.682-2.3-1.332-2.32-1.343a1.272,1.272,0,0,0-1.927.795c-.1.43-2.313,10.615,2.836,17.04,2.4,2.994,5.972,4.64,10.625,4.9v6.464a1.273,1.273,0,1,0,2.546,0V49.669c4.656-.257,8.231-1.9,10.63-4.9M141.677,9.629a6.075,6.075,0,0,1-2.016,3.889,5.424,5.424,0,0,1-1.975-3.07c-.442-1.993.255-4.354,2.072-7.027a10.429,10.429,0,0,1,1.919,6.209m-1.141,6.485a8.988,8.988,0,0,0,3.566-5.482,10.342,10.342,0,0,1,.357,6.262l-.059.2a.852.852,0,0,0-.091.255,8.96,8.96,0,0,1-3.279,4.14V19.6a1.273,1.273,0,1,0-2.546,0v1.784a9.813,9.813,0,0,1-3.24-10.192,8.157,8.157,0,0,0,3.939,5.053,1.3,1.3,0,0,0,1.353-.129m-.779,16.142a1.275,1.275,0,0,0,1.274-1.273V24.506a12.277,12.277,0,0,0,5.5-5.861c.7-.268,1.269-.511,1.714-.71.458,2.627.94,7.877-1.476,11.779A10.4,10.4,0,0,1,139.75,34.3a10.4,10.4,0,0,1-7.018-4.586c-2.415-3.9-1.933-9.152-1.475-11.779.542.242,1.262.545,2.156.877a12.56,12.56,0,0,0,5.072,5.7v6.474a1.274,1.274,0,0,0,1.273,1.273m0,13.078a1.275,1.275,0,0,0,1.274-1.273v-7.44a12.808,12.808,0,0,0,7.313-4.705,25.113,25.113,0,0,0,3.947-1.851c.369,3.072.582,9.127-2.62,13.119-2.112,2.63-5.447,3.968-9.909,3.977-4.465-.009-7.8-1.347-9.912-3.978-3.2-3.989-2.988-10.045-2.62-13.117a25.285,25.285,0,0,0,3.921,1.842,12.807,12.807,0,0,0,7.334,4.716v7.437a1.274,1.274,0,0,0,1.273,1.273" transform="translate(-53.562 0)" fill="#f0730d"/>
    <path id="Trazado_23" data-name="Trazado 23" d="M166.721,194.157c-1.51,1.884-.862,4.888-.834,5.015a.374.374,0,0,0,.223.265.378.378,0,0,0,.346-.031s.307-.2.688-.4a6.965,6.965,0,0,0-.044,3.7.371.371,0,0,0,.22.247.377.377,0,0,0,.329-.023c.017-.01.134-.076.358-.177a4.146,4.146,0,0,0,.455,2.216.376.376,0,0,0,.467.165l.01,0a4.657,4.657,0,0,0,1,2.079.366.366,0,0,0,.292.126.375.375,0,0,0,.283-.142,4.967,4.967,0,0,0,1.05-2.059.382.382,0,0,0,.273,0,.375.375,0,0,0,.21-.2,4.6,4.6,0,0,0,.29-2.233,5.1,5.1,0,0,1,.461.223.375.375,0,0,0,.551-.222,6.975,6.975,0,0,0-.042-3.694c.378.2.677.392.682.4a.375.375,0,0,0,.567-.234c.028-.126.681-3.123-.835-5.015a4.1,4.1,0,0,0-3.127-1.442v-1.9a.375.375,0,1,0-.75,0v1.9a4.1,4.1,0,0,0-3.129,1.442m2.938,10.342a1.788,1.788,0,0,1,.593-1.144,1.594,1.594,0,0,1,.582.9,2.733,2.733,0,0,1-.61,2.068,3.068,3.068,0,0,1-.565-1.827m.336-1.908a2.642,2.642,0,0,0-1.05,1.613,3.04,3.04,0,0,1-.1-1.843l.017-.058a.259.259,0,0,0,.027-.075,2.635,2.635,0,0,1,.965-1.218v.555a.375.375,0,1,0,.75,0v-.525a2.887,2.887,0,0,1,.953,3,2.4,2.4,0,0,0-1.159-1.487.382.382,0,0,0-.4.038m.229-4.751a.375.375,0,0,0-.375.375v1.906a3.613,3.613,0,0,0-1.619,1.726c-.2.079-.373.15-.5.209a5.228,5.228,0,0,1,.435-3.467,2.255,2.255,0,0,1,4.131,0,5.229,5.229,0,0,1,.434,3.466c-.16-.071-.371-.16-.634-.258a3.7,3.7,0,0,0-1.492-1.677v-1.9a.375.375,0,0,0-.375-.375m0-3.849a.375.375,0,0,0-.375.375v2.189a3.77,3.77,0,0,0-2.152,1.385,7.39,7.39,0,0,0-1.162.545,5.431,5.431,0,0,1,.771-3.861,4.218,4.218,0,0,1,5.833,0,5.431,5.431,0,0,1,.771,3.86,7.4,7.4,0,0,0-1.154-.542,3.769,3.769,0,0,0-2.158-1.388v-2.188a.375.375,0,0,0-.375-.375" transform="translate(-71.317 -81.952)" fill="#172532"/>
    <path id="Trazado_24" data-name="Trazado 24" d="M183.307,192.44a3.6,3.6,0,0,0-.449,2.7.2.2,0,0,0,.12.143.2.2,0,0,0,.186-.017s.165-.105.37-.214a3.75,3.75,0,0,0-.023,1.99.2.2,0,0,0,.118.133.2.2,0,0,0,.177-.013c.009-.005.072-.041.193-.1a2.234,2.234,0,0,0,.245,1.193.2.2,0,0,0,.252.088l.006,0a2.5,2.5,0,0,0,.54,1.119.2.2,0,0,0,.157.068.2.2,0,0,0,.153-.077,2.669,2.669,0,0,0,.565-1.109.207.207,0,0,0,.147,0,.2.2,0,0,0,.113-.106,2.488,2.488,0,0,0,.156-1.2c.156.068.238.114.248.12a.2.2,0,0,0,.178.013.2.2,0,0,0,.118-.133,3.747,3.747,0,0,0-.023-1.988c.2.108.365.211.367.213a.2.2,0,0,0,.185.017.2.2,0,0,0,.12-.143,3.58,3.58,0,0,0-.449-2.7,2.205,2.205,0,0,0-1.683-.776V190.64a.2.2,0,0,0-.4,0v1.024a2.2,2.2,0,0,0-1.684.776m1.581,5.567a.961.961,0,0,1,.32-.616.859.859,0,0,1,.313.486,1.472,1.472,0,0,1-.328,1.114,1.653,1.653,0,0,1-.3-.984m.181-1.027a1.422,1.422,0,0,0-.565.868,1.634,1.634,0,0,1-.057-.992l.01-.031a.141.141,0,0,0,.014-.04,1.416,1.416,0,0,1,.52-.656v.3a.2.2,0,0,0,.4,0v-.283a1.554,1.554,0,0,1,.513,1.614,1.294,1.294,0,0,0-.624-.8.207.207,0,0,0-.215.021m.124-2.557a.2.2,0,0,0-.2.2v1.026a1.944,1.944,0,0,0-.872.929c-.11.042-.2.081-.271.112a2.812,2.812,0,0,1,.234-1.866,1.214,1.214,0,0,1,2.223,0,2.818,2.818,0,0,1,.234,1.866c-.086-.038-.2-.086-.342-.139a1.988,1.988,0,0,0-.8-.9v-1.025a.2.2,0,0,0-.2-.2m0-2.072a.2.2,0,0,0-.2.2v1.179a2.03,2.03,0,0,0-1.159.745,4,4,0,0,0-.625.293,2.922,2.922,0,0,1,.415-2.078,2.271,2.271,0,0,1,3.14,0,2.926,2.926,0,0,1,.415,2.078,3.985,3.985,0,0,0-.622-.292,2.025,2.025,0,0,0-1.162-.747v-1.178a.2.2,0,0,0-.2-.2" transform="translate(-78.653 -81.952)" fill="#172532"/>
    <path id="Trazado_25" data-name="Trazado 25" d="M112.259,192.44a3.6,3.6,0,0,0-.449,2.7.2.2,0,0,0,.12.143.2.2,0,0,0,.186-.017s.165-.105.37-.214a3.75,3.75,0,0,0-.023,1.99.2.2,0,0,0,.118.133.2.2,0,0,0,.177-.013c.009-.005.072-.041.193-.1a2.234,2.234,0,0,0,.245,1.193.2.2,0,0,0,.252.088l.006,0a2.5,2.5,0,0,0,.54,1.119.2.2,0,0,0,.157.068.2.2,0,0,0,.153-.077,2.669,2.669,0,0,0,.565-1.109.207.207,0,0,0,.147,0,.2.2,0,0,0,.113-.106,2.487,2.487,0,0,0,.156-1.2c.156.068.238.114.248.12a.2.2,0,0,0,.3-.12,3.747,3.747,0,0,0-.023-1.988c.2.108.365.211.367.213a.2.2,0,0,0,.185.017.2.2,0,0,0,.12-.143,3.58,3.58,0,0,0-.449-2.7,2.205,2.205,0,0,0-1.683-.776V190.64a.2.2,0,1,0-.4,0v1.024a2.2,2.2,0,0,0-1.684.776m1.581,5.567a.961.961,0,0,1,.32-.616.859.859,0,0,1,.313.486,1.472,1.472,0,0,1-.328,1.114,1.653,1.653,0,0,1-.3-.984m.181-1.027a1.422,1.422,0,0,0-.565.868,1.634,1.634,0,0,1-.057-.992l.01-.031a.142.142,0,0,0,.014-.04,1.416,1.416,0,0,1,.52-.656v.3a.2.2,0,1,0,.4,0v-.283a1.554,1.554,0,0,1,.513,1.614,1.294,1.294,0,0,0-.624-.8.207.207,0,0,0-.215.021m.124-2.557a.2.2,0,0,0-.2.2v1.026a1.944,1.944,0,0,0-.872.929c-.11.042-.2.081-.271.112a2.812,2.812,0,0,1,.234-1.866,1.214,1.214,0,0,1,2.223,0,2.818,2.818,0,0,1,.234,1.866c-.086-.038-.2-.086-.342-.139a1.989,1.989,0,0,0-.8-.9v-1.025a.2.2,0,0,0-.2-.2m0-2.072a.2.2,0,0,0-.2.2v1.179a2.03,2.03,0,0,0-1.159.745,4,4,0,0,0-.625.293,2.922,2.922,0,0,1,.415-2.078,2.271,2.271,0,0,1,3.14,0,2.925,2.925,0,0,1,.415,2.078,3.984,3.984,0,0,0-.621-.292,2.025,2.025,0,0,0-1.162-.747v-1.178a.2.2,0,0,0-.2-.2" transform="translate(-48.078 -81.952)" fill="#172532"/>
    <path id="Trazado_26" data-name="Trazado 26" d="M122.436,194.157c-1.51,1.884-.862,4.888-.834,5.015a.374.374,0,0,0,.223.265.378.378,0,0,0,.346-.031s.307-.2.688-.4a6.965,6.965,0,0,0-.044,3.7.371.371,0,0,0,.22.247.377.377,0,0,0,.329-.023c.017-.01.134-.076.358-.177a4.146,4.146,0,0,0,.455,2.216.376.376,0,0,0,.467.165l.01,0a4.657,4.657,0,0,0,1,2.079.366.366,0,0,0,.292.126.375.375,0,0,0,.283-.142,4.967,4.967,0,0,0,1.05-2.059.382.382,0,0,0,.273,0,.375.375,0,0,0,.21-.2,4.6,4.6,0,0,0,.29-2.233,5.107,5.107,0,0,1,.461.223.375.375,0,0,0,.551-.222,6.975,6.975,0,0,0-.042-3.694c.378.2.677.392.682.4a.375.375,0,0,0,.567-.234c.028-.126.681-3.123-.835-5.015a4.1,4.1,0,0,0-3.127-1.442v-1.9a.375.375,0,1,0-.75,0v1.9a4.1,4.1,0,0,0-3.129,1.442m2.938,10.342a1.788,1.788,0,0,1,.593-1.144,1.594,1.594,0,0,1,.582.9,2.733,2.733,0,0,1-.61,2.068,3.068,3.068,0,0,1-.565-1.827m.336-1.908a2.641,2.641,0,0,0-1.05,1.613,3.04,3.04,0,0,1-.1-1.843l.017-.058a.259.259,0,0,0,.027-.075,2.634,2.634,0,0,1,.965-1.218v.555a.375.375,0,1,0,.75,0v-.525a2.888,2.888,0,0,1,.953,3,2.4,2.4,0,0,0-1.159-1.487.382.382,0,0,0-.4.038m.229-4.751a.375.375,0,0,0-.375.375v1.906a3.613,3.613,0,0,0-1.619,1.726c-.2.079-.373.15-.5.209a5.228,5.228,0,0,1,.435-3.467,2.255,2.255,0,0,1,4.131,0,5.229,5.229,0,0,1,.434,3.466c-.16-.071-.371-.16-.634-.258a3.7,3.7,0,0,0-1.493-1.677v-1.9a.375.375,0,0,0-.375-.375m0-3.849a.375.375,0,0,0-.375.375v2.189a3.77,3.77,0,0,0-2.152,1.385,7.39,7.39,0,0,0-1.162.545,5.434,5.434,0,0,1,.771-3.861,4.218,4.218,0,0,1,5.833,0,5.432,5.432,0,0,1,.771,3.86,7.4,7.4,0,0,0-1.154-.542,3.769,3.769,0,0,0-2.158-1.388v-2.188a.375.375,0,0,0-.375-.375" transform="translate(-52.26 -81.952)" fill="#172532"/>
    <path id="Trazado_27" data-name="Trazado 27" d="M140.048,196.6c-2.5,3.12-1.429,8.1-1.382,8.306a.621.621,0,0,0,.942.386c.006,0,.508-.324,1.139-.659a11.533,11.533,0,0,0-.073,6.123.615.615,0,0,0,.365.41.625.625,0,0,0,.545-.039c.027-.016.223-.126.594-.293a6.858,6.858,0,0,0,.754,3.671.623.623,0,0,0,.774.272l.017-.007a7.713,7.713,0,0,0,1.663,3.444.607.607,0,0,0,.484.21.624.624,0,0,0,.469-.236,8.23,8.23,0,0,0,1.739-3.411.635.635,0,0,0,.452,0,.619.619,0,0,0,.347-.326,7.622,7.622,0,0,0,.48-3.7c.481.21.733.352.764.369a.62.62,0,0,0,.913-.367,11.551,11.551,0,0,0-.07-6.119c.626.333,1.122.649,1.131.655a.621.621,0,0,0,.939-.388c.047-.209,1.127-5.174-1.383-8.306a6.783,6.783,0,0,0-5.179-2.388v-3.151a.621.621,0,0,0-1.241,0v3.151a6.781,6.781,0,0,0-5.182,2.388m4.867,17.13a2.96,2.96,0,0,1,.983-1.9,2.642,2.642,0,0,1,.963,1.5,4.528,4.528,0,0,1-1.01,3.426,5.083,5.083,0,0,1-.935-3.027m.556-3.161a4.377,4.377,0,0,0-1.738,2.672,5.04,5.04,0,0,1-.174-3.053l.029-.1a.412.412,0,0,0,.044-.124,4.367,4.367,0,0,1,1.6-2.018v.919a.621.621,0,0,0,1.241,0V208a4.784,4.784,0,0,1,1.58,4.969,3.973,3.973,0,0,0-1.92-2.463.634.634,0,0,0-.66.063m.38-7.869a.621.621,0,0,0-.621.62v3.157a5.989,5.989,0,0,0-2.681,2.857c-.34.131-.619.249-.835.346-.223-1.281-.458-3.84.719-5.742a5.066,5.066,0,0,1,3.421-2.236,5.067,5.067,0,0,1,3.421,2.235c1.178,1.9.942,4.462.719,5.742-.264-.118-.615-.265-1.051-.427a6.125,6.125,0,0,0-2.472-2.777v-3.156a.621.621,0,0,0-.62-.62m0-6.375a.621.621,0,0,0-.621.62v3.626a6.248,6.248,0,0,0-3.565,2.294,12.233,12.233,0,0,0-1.924.9c-.179-1.5-.283-4.449,1.277-6.4a6.988,6.988,0,0,1,9.662,0c1.559,1.945,1.457,4.9,1.277,6.394a12.3,12.3,0,0,0-1.911-.9,6.242,6.242,0,0,0-3.575-2.3v-3.625a.621.621,0,0,0-.62-.62" transform="translate(-59.558 -81.952)" fill="#f0730d"/>
    <path id="Trazado_28" data-name="Trazado 28" d="M101.778,202.842a70.851,70.851,0,0,1-70.066-60.363,2.279,2.279,0,1,1,4.508-.669,66.625,66.625,0,0,0,65.559,56.474,65.89,65.89,0,0,0,65.491-56.034,2.279,2.279,0,0,1,4.5.7,70.852,70.852,0,0,1-70,59.893" transform="translate(-13.636 -60.19)" fill="#f0730d"/>
    <path id="Trazado_29" data-name="Trazado 29" d="M228.159,60.912a2.279,2.279,0,0,1-2.224-1.8A66.6,66.6,0,0,0,171.586,7.734a2.279,2.279,0,1,1,.711-4.5,70.9,70.9,0,0,1,58.091,54.919,2.279,2.279,0,0,1-1.745,2.709,2.318,2.318,0,0,1-.484.052" transform="translate(-73.012 -1.379)" fill="#f0730d"/>
    <path id="Trazado_30" data-name="Trazado 30" d="M36.729,58.285a2.281,2.281,0,0,1-2.2-2.867A70.946,70.946,0,0,1,87.8,4.539a2.279,2.279,0,0,1,.971,4.453,66.821,66.821,0,0,0-49.845,47.6,2.28,2.28,0,0,1-2.2,1.691" transform="translate(-14.824 -1.931)" fill="#f0730d"/>
  </g>
</svg>
