<svg xmlns="http://www.w3.org/2000/svg" xmlns:xlink="http://www.w3.org/1999/xlink" width="72.816" height="60.271" viewBox="0 0 72.816 60.271">
  <defs>
    <clipPath id="clip-path">
      <rect id="Rectángulo_13" data-name="Rectángulo 13" width="72.816" height="60.271" fill="#fff"/>
    </clipPath>
  </defs>
  <g id="Grupo_8" data-name="Grupo 8" clip-path="url(#clip-path)">
    <path id="Trazado_118" data-name="Trazado 118" d="M4.5,108.62a4.876,4.876,0,0,1-2.353-.55A3.9,3.9,0,0,1,.566,106.5,4.985,4.985,0,0,1,0,104.048v-.375A5.108,5.108,0,0,1,.531,101.3a3.937,3.937,0,0,1,1.523-1.622,4.53,4.53,0,0,1,2.353-.588,6.108,6.108,0,0,1,1.8.261,4.421,4.421,0,0,1,1.555.852v2.308H6.257l-.2-1.386a3.03,3.03,0,0,0-.458-.254,2.533,2.533,0,0,0-.521-.165,3.045,3.045,0,0,0-.6-.057,2.283,2.283,0,0,0-1.291.362,2.329,2.329,0,0,0-.843,1.033,3.981,3.981,0,0,0-.3,1.612v.388a3.846,3.846,0,0,0,.306,1.589,2.419,2.419,0,0,0,.868,1.055,2.319,2.319,0,0,0,1.32.375,3.67,3.67,0,0,0,.782-.086,4.414,4.414,0,0,0,.738-.226l.21-1.3h1.5v2.27a5.376,5.376,0,0,1-1.38.633,6.234,6.234,0,0,1-1.882.264" transform="translate(0 -75.244)" fill="#fff"/>
    <path id="Trazado_119" data-name="Trazado 119" d="M39.006,116.142a3.4,3.4,0,0,1-1.749-.436,3.026,3.026,0,0,1-1.154-1.2,3.577,3.577,0,0,1-.41-1.727v-.242a4.29,4.29,0,0,1,.375-1.838,2.938,2.938,0,0,1,1.081-1.256A3.021,3.021,0,0,1,38.841,109a3.167,3.167,0,0,1,1.577.362,2.347,2.347,0,0,1,.976,1.059,3.9,3.9,0,0,1,.334,1.695V113.2H37.811l-.007.045a1.727,1.727,0,0,0,.223.69,1.27,1.27,0,0,0,.5.477,1.619,1.619,0,0,0,.785.175,3.479,3.479,0,0,0,.9-.115,4.176,4.176,0,0,0,.874-.349l.5,1.246a3.977,3.977,0,0,1-1.1.553,4.588,4.588,0,0,1-1.482.223m-1.182-4.248h2.022v-.165a2.043,2.043,0,0,0-.1-.665.823.823,0,0,0-.305-.423.963.963,0,0,0-.56-.146.914.914,0,0,0-.582.178,1.1,1.1,0,0,0-.343.486,2.866,2.866,0,0,0-.162.7Z" transform="translate(-27.102 -82.766)" fill="#fff"/>
    <path id="Trazado_120" data-name="Trazado 120" d="M64.587,116.009V114.8l.846-.2V110.54l-.967-.2v-1.214h2.88l.064.846.013.165a2.083,2.083,0,0,1,.6-.859A1.377,1.377,0,0,1,68.9,109a2.64,2.64,0,0,1,.34.026,2.541,2.541,0,0,1,.372.076l-.21,1.876-.941-.045a1.134,1.134,0,0,0-.579.1,1.29,1.29,0,0,0-.4.359V114.6l.846.2v1.208Z" transform="translate(-48.95 -82.766)" fill="#fff"/>
    <path id="Trazado_121" data-name="Trazado 121" d="M90.04,116.411l-1.965-5.545-.757-.121v-1.214H90.8v1.208l-.668.127.884,2.874.146.528H91.2l.178-.528,1.049-2.868-.82-.134v-1.208h3.472v1.214l-.776.14-2.137,5.526Z" transform="translate(-66.303 -83.168)" fill="#fff"/>
    <path id="Trazado_122" data-name="Trazado 122" d="M124.556,116.142a3.4,3.4,0,0,1-1.749-.436,3.023,3.023,0,0,1-1.154-1.2,3.577,3.577,0,0,1-.41-1.727v-.242a4.282,4.282,0,0,1,.375-1.838,2.937,2.937,0,0,1,1.081-1.256,3.022,3.022,0,0,1,1.692-.448,3.165,3.165,0,0,1,1.577.362,2.347,2.347,0,0,1,.976,1.059,3.9,3.9,0,0,1,.334,1.695V113.2H123.36l-.006.045a1.723,1.723,0,0,0,.223.69,1.269,1.269,0,0,0,.5.477,1.618,1.618,0,0,0,.785.175,3.482,3.482,0,0,0,.9-.115,4.169,4.169,0,0,0,.874-.349l.5,1.246a3.982,3.982,0,0,1-1.1.553,4.587,4.587,0,0,1-1.481.223m-1.183-4.248H125.4v-.165a2.057,2.057,0,0,0-.1-.665.825.825,0,0,0-.305-.423.965.965,0,0,0-.56-.146.913.913,0,0,0-.582.178,1.1,1.1,0,0,0-.343.486,2.889,2.889,0,0,0-.162.7Z" transform="translate(-92.062 -82.766)" fill="#fff"/>
    <path id="Trazado_123" data-name="Trazado 123" d="M152.735,116.142a3.238,3.238,0,0,1-1.733-.448,2.988,2.988,0,0,1-1.123-1.234,3.952,3.952,0,0,1-.394-1.8v-.172a3.915,3.915,0,0,1,.4-1.812,3.033,3.033,0,0,1,1.129-1.234,3.191,3.191,0,0,1,1.7-.445,4.193,4.193,0,0,1,1.644.293,4.081,4.081,0,0,1,1.1.649l-.026,2.073h-1.526l-.261-1.24a.9.9,0,0,0-.334-.213,1.091,1.091,0,0,0-.391-.08,1.3,1.3,0,0,0-.8.229,1.317,1.317,0,0,0-.448.674,3.666,3.666,0,0,0-.143,1.107v.172a2.994,2.994,0,0,0,.172,1.113,1.334,1.334,0,0,0,.452.614,1.111,1.111,0,0,0,1.3-.035,1.3,1.3,0,0,0,.375-.661h1.723l.026.038a3.676,3.676,0,0,1-.452,1.313,2.1,2.1,0,0,1-.9.818,3.447,3.447,0,0,1-1.494.279" transform="translate(-113.507 -82.766)" fill="#fff"/>
    <path id="Trazado_124" data-name="Trazado 124" d="M181.359,116.142a3.4,3.4,0,0,1-1.749-.436,3.026,3.026,0,0,1-1.154-1.2,3.577,3.577,0,0,1-.41-1.727v-.242a4.289,4.289,0,0,1,.375-1.838,2.938,2.938,0,0,1,1.081-1.256,3.02,3.02,0,0,1,1.691-.448,3.167,3.167,0,0,1,1.577.362,2.347,2.347,0,0,1,.976,1.059,3.9,3.9,0,0,1,.334,1.695V113.2h-3.917l-.007.045a1.726,1.726,0,0,0,.223.69,1.27,1.27,0,0,0,.5.477,1.619,1.619,0,0,0,.785.175,3.479,3.479,0,0,0,.9-.115,4.176,4.176,0,0,0,.874-.349l.5,1.246a3.977,3.977,0,0,1-1.1.553,4.588,4.588,0,0,1-1.482.223m-1.182-4.248H182.2v-.165a2.044,2.044,0,0,0-.1-.665.823.823,0,0,0-.305-.423.963.963,0,0,0-.56-.146.914.914,0,0,0-.582.178,1.1,1.1,0,0,0-.343.486,2.867,2.867,0,0,0-.162.7Z" transform="translate(-135.193 -82.766)" fill="#fff"/>
    <path id="Trazado_125" data-name="Trazado 125" d="M206.939,116.009V114.8l.846-.2V110.54l-.967-.2v-1.214H209.7l.064.846.013.165a2.083,2.083,0,0,1,.6-.859,1.377,1.377,0,0,1,.878-.28,2.64,2.64,0,0,1,.34.026,2.542,2.542,0,0,1,.372.076l-.21,1.876-.941-.045a1.134,1.134,0,0,0-.579.1,1.29,1.29,0,0,0-.4.359V114.6l.846.2v1.208Z" transform="translate(-157.04 -82.766)" fill="#fff"/>
    <path id="Trazado_126" data-name="Trazado 126" d="M229.582,106.821v-1.208l.852-.2v-4.063l-.973-.2V99.941h3.014v5.475l.852.2v1.208Zm.63-8.184L231.5,96.9h2.124l.013.038-1.768,1.7h-1.66Z" transform="translate(-174.233 -73.579)" fill="#fff"/>
    <path id="Trazado_127" data-name="Trazado 127" d="M250.358,116.142a2.327,2.327,0,0,1-1.631-.56,2.1,2.1,0,0,1-.267-2.639,2.249,2.249,0,0,1,1.04-.776,4.623,4.623,0,0,1,1.723-.28h.82v-.458a1.1,1.1,0,0,0-.264-.754,1.013,1.013,0,0,0-.8-.3,1.579,1.579,0,0,0-.474.067,1.5,1.5,0,0,0-.384.181l-.146.89h-1.456l-.026-1.844a7.084,7.084,0,0,1,1.2-.477A4.908,4.908,0,0,1,251.1,109a3.421,3.421,0,0,1,2.178.636,2.184,2.184,0,0,1,.8,1.819v2.683c0,.1,0,.192,0,.283a1.51,1.51,0,0,0,.029.264l.725.115v1.208h-2.448q-.077-.146-.162-.344a1.63,1.63,0,0,1-.118-.394,2.489,2.489,0,0,1-.738.636,2.047,2.047,0,0,1-1.017.236m.585-1.475a1.445,1.445,0,0,0,.614-.137,1.3,1.3,0,0,0,.486-.378v-1.043h-.808a1.226,1.226,0,0,0-.811.239.751.751,0,0,0-.283.6.663.663,0,0,0,.22.528.855.855,0,0,0,.581.19" transform="translate(-188.396 -82.766)" fill="#fff"/>
    <path id="Trazado_128" data-name="Trazado 128" d="M282.113,116.182a7.027,7.027,0,0,1-1.472-.146,6.135,6.135,0,0,1-1.269-.413l-.025-2.047h1.4l.248,1a2.19,2.19,0,0,0,.414.153,2.084,2.084,0,0,0,.547.064,1.375,1.375,0,0,0,.807-.175.528.528,0,0,0,.229-.435.577.577,0,0,0-.251-.455,2.641,2.641,0,0,0-1.034-.353,3.549,3.549,0,0,1-1.79-.795,1.857,1.857,0,0,1-.576-1.4,2.07,2.07,0,0,1,.277-1.053,1.98,1.98,0,0,1,.881-.776,3.58,3.58,0,0,1,1.57-.3,7.033,7.033,0,0,1,1.453.143,4.709,4.709,0,0,1,1.122.366l.007,1.977h-1.4l-.191-.9a1.142,1.142,0,0,0-.366-.171,1.759,1.759,0,0,0-.467-.058,1.125,1.125,0,0,0-.687.175.54.54,0,0,0-.229.448.594.594,0,0,0,.089.308.824.824,0,0,0,.35.28,3.55,3.55,0,0,0,.769.245,4.475,4.475,0,0,1,1.816.747,1.679,1.679,0,0,1,.588,1.389,1.957,1.957,0,0,1-.712,1.58,3.207,3.207,0,0,1-2.1.594" transform="translate(-212.108 -82.806)" fill="#fff"/>
    <path id="Trazado_129" data-name="Trazado 129" d="M66.528,155.891a4.869,4.869,0,0,1-1.987-.378,2.942,2.942,0,0,1-1.323-1.109,3.206,3.206,0,0,1-.469-1.77v-4.649l-.957-.2v-1.2H65.74v1.2l-.964.2v4.649a1.994,1.994,0,0,0,.207.961,1.3,1.3,0,0,0,.6.567,2.171,2.171,0,0,0,.938.186,2.239,2.239,0,0,0,.961-.186,1.3,1.3,0,0,0,.6-.567,1.991,1.991,0,0,0,.208-.961v-4.649l-.957-.2v-1.2h3.949v1.2l-.964.2v4.649a3.148,3.148,0,0,1-.478,1.764,3.025,3.025,0,0,1-1.329,1.111,4.813,4.813,0,0,1-1.984.381" transform="translate(-46.919 -111.307)" fill="#fff"/>
    <path id="Trazado_130" data-name="Trazado 130" d="M102.744,162.8v-1.2l.838-.2v-4.025l-.964-.2v-1.2h2.866l.076.964a2.473,2.473,0,0,1,.841-.8,2.235,2.235,0,0,1,1.131-.287,1.948,1.948,0,0,1,1.552.649,3.075,3.075,0,0,1,.564,2.047V161.4l.838.2v1.2H106.9v-1.2l.718-.2V158.55a1.244,1.244,0,0,0-.249-.876.948.948,0,0,0-.715-.258,1.276,1.276,0,0,0-.611.139,1.256,1.256,0,0,0-.441.4V161.4l.655.2v1.2Z" transform="translate(-77.92 -118.343)" fill="#fff"/>
    <path id="Trazado_131" data-name="Trazado 131" d="M136.812,153.693v-1.2l.844-.2v-4.025l-.964-.2v-1.2h2.986V152.3l.844.2v1.2Zm.781-9.827h2.091v1.644h-2.091Z" transform="translate(-103.793 -109.24)" fill="#fff"/>
    <path id="Trazado_132" data-name="Trazado 132" d="M157.49,153.825a2.3,2.3,0,0,1-1.386-.419,2.628,2.628,0,0,1-.888-1.181,4.7,4.7,0,0,1-.309-1.776v-.133a5.135,5.135,0,0,1,.312-1.871,2.84,2.84,0,0,1,.888-1.247,2.158,2.158,0,0,1,1.363-.447,1.962,1.962,0,0,1,.961.224,2.2,2.2,0,0,1,.708.633v-2.343l-.97-.2v-1.2h3V152.3l.838.2v1.2h-2.6l-.151-.838a2.2,2.2,0,0,1-.746.724,2.034,2.034,0,0,1-1.023.245m.617-1.562a1.3,1.3,0,0,0,.595-.136,1.125,1.125,0,0,0,.438-.394v-2.816a1.243,1.243,0,0,0-.431-.447,1.118,1.118,0,0,0-.589-.157.943.943,0,0,0-.683.252,1.483,1.483,0,0,0-.381.7,4.111,4.111,0,0,0-.119,1.049v.133a2.786,2.786,0,0,0,.265,1.335.949.949,0,0,0,.907.479" transform="translate(-117.623 -109.24)" fill="#fff"/>
    <path id="Trazado_133" data-name="Trazado 133" d="M189.057,162.927a2.306,2.306,0,0,1-1.616-.554,2.08,2.08,0,0,1-.264-2.614,2.227,2.227,0,0,1,1.03-.769,4.583,4.583,0,0,1,1.707-.277h.813v-.454a1.094,1.094,0,0,0-.262-.746,1,1,0,0,0-.8-.3,1.569,1.569,0,0,0-.469.066,1.489,1.489,0,0,0-.381.18l-.145.882h-1.443l-.025-1.827a7.061,7.061,0,0,1,1.184-.472,4.884,4.884,0,0,1,1.4-.189,3.388,3.388,0,0,1,2.157.63,2.162,2.162,0,0,1,.8,1.8v2.658c0,.1,0,.19,0,.28a1.486,1.486,0,0,0,.028.262l.718.113v1.2h-2.425q-.075-.145-.161-.34a1.615,1.615,0,0,1-.117-.391,2.473,2.473,0,0,1-.731.63,2.034,2.034,0,0,1-1.008.233m.58-1.461a1.433,1.433,0,0,0,.608-.136,1.3,1.3,0,0,0,.482-.375v-1.033h-.8a1.213,1.213,0,0,0-.8.236.746.746,0,0,0-.28.6.656.656,0,0,0,.217.523.847.847,0,0,0,.577.189" transform="translate(-141.866 -118.342)" fill="#fff"/>
    <path id="Trazado_134" data-name="Trazado 134" d="M220.515,162.966a6.968,6.968,0,0,1-1.458-.145,6.083,6.083,0,0,1-1.257-.409l-.025-2.028h1.386l.245.989a2.167,2.167,0,0,0,.409.151,2.082,2.082,0,0,0,.542.063,1.362,1.362,0,0,0,.8-.174.524.524,0,0,0,.227-.432.572.572,0,0,0-.249-.45,2.623,2.623,0,0,0-1.024-.349,3.513,3.513,0,0,1-1.773-.787,1.84,1.84,0,0,1-.57-1.386,2.051,2.051,0,0,1,.274-1.043,1.966,1.966,0,0,1,.872-.769,3.552,3.552,0,0,1,1.556-.293,6.95,6.95,0,0,1,1.439.142,4.673,4.673,0,0,1,1.112.362l.006,1.959h-1.386l-.189-.888a1.132,1.132,0,0,0-.362-.17,1.748,1.748,0,0,0-.463-.057,1.11,1.11,0,0,0-.68.174.534.534,0,0,0-.227.444.586.586,0,0,0,.088.305.811.811,0,0,0,.346.277,3.518,3.518,0,0,0,.762.243,4.433,4.433,0,0,1,1.8.74,1.664,1.664,0,0,1,.583,1.376,1.937,1.937,0,0,1-.706,1.565,3.172,3.172,0,0,1-2.079.589" transform="translate(-165.356 -118.381)" fill="#fff"/>
    <path id="Trazado_135" data-name="Trazado 135" d="M96.615,51.352c1.308-1.633.748-4.237.723-4.346a.325.325,0,0,0-.493-.2s-.265.17-.6.345a6.04,6.04,0,0,0,.038-3.2.322.322,0,0,0-.191-.214.327.327,0,0,0-.285.02c-.014.008-.117.066-.311.153a3.588,3.588,0,0,0-.394-1.921.326.326,0,0,0-.4-.143l-.009,0a4.035,4.035,0,0,0-.87-1.8.318.318,0,0,0-.253-.11.326.326,0,0,0-.245.124,4.3,4.3,0,0,0-.91,1.785.334.334,0,0,0-.237,0,.325.325,0,0,0-.182.171,3.99,3.99,0,0,0-.251,1.935,4.409,4.409,0,0,1-.4-.193.325.325,0,0,0-.478.192,6.044,6.044,0,0,0,.037,3.2c-.327-.174-.587-.34-.592-.343a.325.325,0,0,0-.492.2c-.025.11-.59,2.707.723,4.347a3.549,3.549,0,0,0,2.71,1.25v1.649a.325.325,0,0,0,.65,0V52.6a3.55,3.55,0,0,0,2.712-1.25m-2.547-8.964a1.551,1.551,0,0,1-.514.992,1.386,1.386,0,0,1-.5-.783,2.37,2.37,0,0,1,.529-1.793,2.66,2.66,0,0,1,.49,1.584m-.291,1.654a2.291,2.291,0,0,0,.91-1.4,2.638,2.638,0,0,1,.091,1.6l-.015.05a.219.219,0,0,0-.023.065,2.283,2.283,0,0,1-.836,1.056v-.481a.325.325,0,0,0-.65,0v.455a2.5,2.5,0,0,1-.827-2.6,2.081,2.081,0,0,0,1,1.289.332.332,0,0,0,.345-.033m-.2,4.118a.325.325,0,0,0,.325-.325V46.184a3.132,3.132,0,0,0,1.4-1.5c.178-.069.324-.13.437-.181a4.533,4.533,0,0,1-.377,3,1.955,1.955,0,0,1-3.58,0,4.534,4.534,0,0,1-.376-3c.138.062.322.139.55.224a3.2,3.2,0,0,0,1.294,1.453v1.651a.325.325,0,0,0,.325.325m0,3.336a.325.325,0,0,0,.325-.325v-1.9a3.266,3.266,0,0,0,1.865-1.2,6.387,6.387,0,0,0,1.007-.472,4.706,4.706,0,0,1-.668,3.346,3.656,3.656,0,0,1-5.056,0,4.709,4.709,0,0,1-.668-3.346,6.424,6.424,0,0,0,1,.47,3.267,3.267,0,0,0,1.871,1.2v1.9a.325.325,0,0,0,.325.325" transform="translate(-68.094 -30.321)" fill="#fff"/>
    <path id="Trazado_136" data-name="Trazado 136" d="M73.405,74.169a3.117,3.117,0,0,0,.389-2.339.175.175,0,0,0-.265-.109s-.143.091-.321.186a3.248,3.248,0,0,0,.02-1.725.173.173,0,0,0-.1-.115.175.175,0,0,0-.153.011c-.008,0-.063.035-.167.083a1.933,1.933,0,0,0-.212-1.034.175.175,0,0,0-.218-.077l0,0a2.172,2.172,0,0,0-.468-.97.172.172,0,0,0-.136-.059.176.176,0,0,0-.132.067,2.32,2.32,0,0,0-.49.961.18.18,0,0,0-.127,0,.175.175,0,0,0-.1.092,2.146,2.146,0,0,0-.135,1.042c-.136-.059-.207-.1-.215-.1a.175.175,0,0,0-.257.1,3.255,3.255,0,0,0,.02,1.723c-.176-.094-.316-.183-.318-.184a.175.175,0,0,0-.265.109,3.1,3.1,0,0,0,.389,2.34,1.909,1.909,0,0,0,1.459.673v.888a.175.175,0,0,0,.35,0v-.888a1.91,1.91,0,0,0,1.459-.673m-1.371-4.825a.833.833,0,0,1-.277.534.745.745,0,0,1-.271-.421,1.274,1.274,0,0,1,.284-.965,1.432,1.432,0,0,1,.263.853m-.157.89a1.234,1.234,0,0,0,.49-.753,1.42,1.42,0,0,1,.049.86l-.008.027a.12.12,0,0,0-.013.035,1.231,1.231,0,0,1-.45.568v-.259a.175.175,0,0,0-.35,0v.245a1.347,1.347,0,0,1-.445-1.4,1.12,1.12,0,0,0,.541.694.178.178,0,0,0,.186-.018m-.107,2.216a.175.175,0,0,0,.175-.175v-.889a1.688,1.688,0,0,0,.755-.8c.1-.037.174-.07.235-.1a2.439,2.439,0,0,1-.2,1.617,1.052,1.052,0,0,1-1.927,0,2.442,2.442,0,0,1-.2-1.617c.074.033.173.075.3.12a1.725,1.725,0,0,0,.7.782v.889a.175.175,0,0,0,.175.175m0,1.8a.175.175,0,0,0,.175-.175V73.051a1.759,1.759,0,0,0,1-.646,3.436,3.436,0,0,0,.542-.254,2.533,2.533,0,0,1-.36,1.8,1.968,1.968,0,0,1-2.722,0,2.534,2.534,0,0,1-.36-1.8,3.471,3.471,0,0,0,.538.253,1.757,1.757,0,0,0,1.007.647v1.021a.175.175,0,0,0,.175.175" transform="translate(-52.902 -51.65)" fill="#fff"/>
    <path id="Trazado_137" data-name="Trazado 137" d="M219.156,74.169a3.117,3.117,0,0,0,.389-2.339.175.175,0,0,0-.265-.109s-.143.091-.321.186a3.248,3.248,0,0,0,.02-1.725.173.173,0,0,0-.1-.115.175.175,0,0,0-.153.011c-.008,0-.063.035-.167.083a1.933,1.933,0,0,0-.212-1.034.175.175,0,0,0-.218-.077l0,0a2.173,2.173,0,0,0-.468-.97.171.171,0,0,0-.136-.059.176.176,0,0,0-.132.067,2.32,2.32,0,0,0-.49.961.18.18,0,0,0-.127,0,.175.175,0,0,0-.1.092,2.146,2.146,0,0,0-.135,1.042c-.135-.059-.207-.1-.215-.1a.175.175,0,0,0-.257.1,3.255,3.255,0,0,0,.02,1.723c-.176-.094-.316-.183-.318-.184a.175.175,0,0,0-.264.109,3.1,3.1,0,0,0,.389,2.34,1.909,1.909,0,0,0,1.459.673v.888a.175.175,0,0,0,.35,0v-.888a1.91,1.91,0,0,0,1.46-.673m-1.371-4.825a.833.833,0,0,1-.277.534.745.745,0,0,1-.271-.421,1.274,1.274,0,0,1,.284-.965,1.432,1.432,0,0,1,.263.853m-.157.89a1.234,1.234,0,0,0,.49-.753,1.42,1.42,0,0,1,.049.86l-.008.027a.121.121,0,0,0-.013.035,1.231,1.231,0,0,1-.45.568v-.259a.175.175,0,0,0-.35,0v.245a1.347,1.347,0,0,1-.445-1.4,1.12,1.12,0,0,0,.541.694.178.178,0,0,0,.186-.018m-.107,2.216a.175.175,0,0,0,.175-.175v-.889a1.688,1.688,0,0,0,.755-.8c.1-.037.174-.07.235-.1a2.44,2.44,0,0,1-.2,1.617,1.052,1.052,0,0,1-1.927,0,2.442,2.442,0,0,1-.2-1.617c.074.033.173.075.3.12a1.725,1.725,0,0,0,.7.782v.889a.175.175,0,0,0,.175.175m0,1.8a.175.175,0,0,0,.175-.175V73.051a1.759,1.759,0,0,0,1-.646,3.433,3.433,0,0,0,.542-.254,2.533,2.533,0,0,1-.36,1.8,1.968,1.968,0,0,1-2.722,0,2.534,2.534,0,0,1-.36-1.8,3.47,3.47,0,0,0,.538.253,1.757,1.757,0,0,0,1.007.647v1.021a.175.175,0,0,0,.175.175" transform="translate(-163.574 -51.65)" fill="#fff"/>
    <path id="Trazado_138" data-name="Trazado 138" d="M187.462,51.352c1.308-1.633.748-4.237.723-4.346a.325.325,0,0,0-.493-.2s-.266.17-.6.345a6.039,6.039,0,0,0,.038-3.2.322.322,0,0,0-.191-.214.327.327,0,0,0-.285.02c-.014.008-.117.066-.311.153a3.592,3.592,0,0,0-.394-1.921.326.326,0,0,0-.4-.143l-.009,0a4.035,4.035,0,0,0-.87-1.8.317.317,0,0,0-.253-.11.325.325,0,0,0-.246.124,4.3,4.3,0,0,0-.91,1.785.334.334,0,0,0-.237,0,.324.324,0,0,0-.182.171,4,4,0,0,0-.251,1.935,4.377,4.377,0,0,1-.4-.193.325.325,0,0,0-.478.192,6.044,6.044,0,0,0,.037,3.2c-.327-.174-.587-.34-.591-.343a.325.325,0,0,0-.492.2c-.025.11-.59,2.707.723,4.347a3.549,3.549,0,0,0,2.71,1.25v1.649a.325.325,0,0,0,.65,0V52.6a3.55,3.55,0,0,0,2.712-1.25m-2.547-8.964a1.55,1.55,0,0,1-.514.992,1.384,1.384,0,0,1-.5-.783,2.369,2.369,0,0,1,.528-1.793,2.659,2.659,0,0,1,.49,1.584m-.291,1.654a2.293,2.293,0,0,0,.91-1.4,2.638,2.638,0,0,1,.091,1.6l-.015.05a.217.217,0,0,0-.023.065,2.284,2.284,0,0,1-.837,1.056v-.481a.325.325,0,0,0-.65,0v.455a2.5,2.5,0,0,1-.826-2.6,2.08,2.08,0,0,0,1,1.289.332.332,0,0,0,.345-.033m-.2,4.118a.325.325,0,0,0,.325-.325V46.184a3.131,3.131,0,0,0,1.4-1.5c.178-.069.324-.13.437-.181a4.535,4.535,0,0,1-.376,3,1.955,1.955,0,0,1-3.58,0,4.535,4.535,0,0,1-.376-3c.138.062.322.139.55.224a3.206,3.206,0,0,0,1.294,1.453v1.651a.325.325,0,0,0,.325.325m0,3.336a.325.325,0,0,0,.325-.325v-1.9a3.265,3.265,0,0,0,1.865-1.2,6.368,6.368,0,0,0,1.007-.472,4.706,4.706,0,0,1-.668,3.346,3.656,3.656,0,0,1-5.056,0,4.71,4.71,0,0,1-.669-3.346,6.446,6.446,0,0,0,1,.47,3.268,3.268,0,0,0,1.871,1.2v1.9a.325.325,0,0,0,.325.325" transform="translate(-137.076 -30.321)" fill="#fff"/>
    <path id="Trazado_139" data-name="Trazado 139" d="M135.956,18.915c2.167-2.7,1.238-7.017,1.2-7.2a.538.538,0,0,0-.817-.335c-.005,0-.44.281-.987.571a10.006,10.006,0,0,0,.063-5.307.533.533,0,0,0-.316-.355.54.54,0,0,0-.472.034c-.024.013-.193.109-.515.254a5.945,5.945,0,0,0-.653-3.182.54.54,0,0,0-.671-.236l-.015.006A6.685,6.685,0,0,0,131.33.181a.526.526,0,0,0-.42-.182.54.54,0,0,0-.407.2A7.13,7.13,0,0,0,129,3.16a.551.551,0,0,0-.392,0,.538.538,0,0,0-.3.283,6.613,6.613,0,0,0-.416,3.206,7.315,7.315,0,0,1-.663-.32.537.537,0,0,0-.791.319,10.006,10.006,0,0,0,.061,5.3c-.542-.288-.973-.563-.98-.568a.538.538,0,0,0-.814.336c-.041.182-.977,4.485,1.2,7.2a5.877,5.877,0,0,0,4.489,2.07v2.731a.538.538,0,1,0,1.076,0V20.984a5.877,5.877,0,0,0,4.491-2.07M131.738,4.068a2.567,2.567,0,0,1-.852,1.643,2.292,2.292,0,0,1-.834-1.3,3.924,3.924,0,0,1,.875-2.969,4.406,4.406,0,0,1,.811,2.623m-.482,2.74a3.8,3.8,0,0,0,1.507-2.316,4.37,4.37,0,0,1,.151,2.646l-.025.083a.36.36,0,0,0-.038.108,3.786,3.786,0,0,1-1.385,1.749v-.8a.538.538,0,1,0-1.076,0v.754a4.146,4.146,0,0,1-1.369-4.306,3.446,3.446,0,0,0,1.664,2.135.55.55,0,0,0,.572-.054m-.329,6.82a.538.538,0,0,0,.538-.538V10.353a5.187,5.187,0,0,0,2.324-2.476c.294-.113.536-.216.724-.3a7.51,7.51,0,0,1-.624,4.977,4.393,4.393,0,0,1-2.965,1.938,4.393,4.393,0,0,1-2.965-1.938,7.511,7.511,0,0,1-.623-4.977c.229.1.533.23.911.37a5.307,5.307,0,0,0,2.143,2.407V13.09a.538.538,0,0,0,.538.538m0,5.525a.538.538,0,0,0,.538-.538V15.472a5.411,5.411,0,0,0,3.09-1.988,10.61,10.61,0,0,0,1.667-.782c.156,1.3.246,3.856-1.107,5.543a6.057,6.057,0,0,1-8.374,0c-1.352-1.686-1.263-4.244-1.107-5.542a10.683,10.683,0,0,0,1.657.778,5.411,5.411,0,0,0,3.1,1.993v3.142a.538.538,0,0,0,.538.538" transform="translate(-94.509 0.001)" fill="#fff"/>
    <path id="Trazado_140" data-name="Trazado 140" d="M166.145,192.009a2.822,2.822,0,0,0-.352,2.119.158.158,0,0,0,.24.1s.13-.083.291-.168a2.943,2.943,0,0,0-.019,1.562.157.157,0,0,0,.093.1.159.159,0,0,0,.139-.01c.007,0,.057-.032.151-.075a1.752,1.752,0,0,0,.192.936.159.159,0,0,0,.2.07l0,0a1.968,1.968,0,0,0,.424.878.155.155,0,0,0,.123.053.158.158,0,0,0,.12-.06,2.1,2.1,0,0,0,.444-.87.161.161,0,0,0,.115,0,.158.158,0,0,0,.089-.083,1.945,1.945,0,0,0,.123-.943,2.158,2.158,0,0,1,.195.094.158.158,0,0,0,.233-.094,2.947,2.947,0,0,0-.018-1.561c.16.085.286.166.288.167a.158.158,0,0,0,.24-.1,2.812,2.812,0,0,0-.353-2.119,1.731,1.731,0,0,0-1.321-.609v-.8a.158.158,0,1,0-.317,0v.8a1.731,1.731,0,0,0-1.322.609m1.241,4.37a.756.756,0,0,1,.251-.484.674.674,0,0,1,.246.382,1.155,1.155,0,0,1-.258.874,1.3,1.3,0,0,1-.239-.772m.142-.806a1.116,1.116,0,0,0-.444.682,1.285,1.285,0,0,1-.044-.779l.007-.024a.11.11,0,0,0,.011-.032,1.113,1.113,0,0,1,.408-.515v.235a.158.158,0,0,0,.317,0v-.222a1.22,1.22,0,0,1,.4,1.267,1.013,1.013,0,0,0-.49-.628.162.162,0,0,0-.168.016m.1-2.007a.158.158,0,0,0-.158.158v.805a1.526,1.526,0,0,0-.684.729c-.086.033-.158.063-.213.088a2.209,2.209,0,0,1,.184-1.465.953.953,0,0,1,1.745,0,2.209,2.209,0,0,1,.183,1.465c-.067-.03-.157-.068-.268-.109a1.564,1.564,0,0,0-.631-.708v-.8a.158.158,0,0,0-.158-.158m0-1.626a.159.159,0,0,0-.158.158v.925a1.593,1.593,0,0,0-.909.585,3.121,3.121,0,0,0-.491.23,2.294,2.294,0,0,1,.326-1.631,1.782,1.782,0,0,1,2.465,0,2.3,2.3,0,0,1,.326,1.631,3.127,3.127,0,0,0-.488-.229,1.593,1.593,0,0,0-.912-.587V192.1a.158.158,0,0,0-.158-.158" transform="translate(-125.837 -144.603)" fill="#fff"/>
    <path id="Trazado_141" data-name="Trazado 141" d="M183,191.284a1.52,1.52,0,0,0-.19,1.14.085.085,0,0,0,.051.06.086.086,0,0,0,.079-.007s.07-.045.156-.09a1.585,1.585,0,0,0-.01.841.085.085,0,0,0,.05.056.086.086,0,0,0,.075-.005s.031-.017.081-.04a.944.944,0,0,0,.1.5.085.085,0,0,0,.106.037h0a1.058,1.058,0,0,0,.228.473.083.083,0,0,0,.066.029.085.085,0,0,0,.065-.032,1.128,1.128,0,0,0,.239-.468.088.088,0,0,0,.062,0,.086.086,0,0,0,.048-.045,1.051,1.051,0,0,0,.066-.508c.066.029.1.048.1.051a.085.085,0,0,0,.125-.051,1.583,1.583,0,0,0-.01-.84c.086.046.154.089.155.09a.086.086,0,0,0,.078.007.085.085,0,0,0,.051-.06,1.513,1.513,0,0,0-.19-1.14.932.932,0,0,0-.711-.328v-.432a.085.085,0,1,0-.17,0v.432a.931.931,0,0,0-.711.328m.668,2.352a.406.406,0,0,1,.135-.26.363.363,0,0,1,.132.205.622.622,0,0,1-.139.471.7.7,0,0,1-.129-.416m.076-.434a.6.6,0,0,0-.238.367.691.691,0,0,1-.024-.419l0-.013a.06.06,0,0,0,.006-.017.6.6,0,0,1,.22-.277v.126a.085.085,0,0,0,.17,0v-.119a.657.657,0,0,1,.217.682.547.547,0,0,0-.264-.338.087.087,0,0,0-.091.009m.052-1.08a.085.085,0,0,0-.085.085v.433a.821.821,0,0,0-.368.392c-.046.018-.085.034-.115.047a1.188,1.188,0,0,1,.1-.788.513.513,0,0,1,.939,0,1.19,1.19,0,0,1,.1.788c-.036-.016-.084-.036-.144-.059a.84.84,0,0,0-.339-.381v-.433a.085.085,0,0,0-.085-.085m0-.875a.085.085,0,0,0-.085.085v.5a.858.858,0,0,0-.49.315,1.689,1.689,0,0,0-.264.124,1.234,1.234,0,0,1,.175-.878.96.96,0,0,1,1.327,0,1.236,1.236,0,0,1,.175.878,1.685,1.685,0,0,0-.263-.123.856.856,0,0,0-.491-.316v-.5a.085.085,0,0,0-.085-.085" transform="translate(-138.781 -144.603)" fill="#fff"/>
    <path id="Trazado_142" data-name="Trazado 142" d="M111.949,191.284a1.52,1.52,0,0,0-.19,1.14.085.085,0,0,0,.13.053s.07-.045.156-.09a1.584,1.584,0,0,0-.01.841.084.084,0,0,0,.05.056.086.086,0,0,0,.075-.005s.031-.017.081-.04a.944.944,0,0,0,.1.5.085.085,0,0,0,.106.037h0a1.058,1.058,0,0,0,.228.473.083.083,0,0,0,.066.029.085.085,0,0,0,.064-.032,1.128,1.128,0,0,0,.239-.468.088.088,0,0,0,.062,0,.086.086,0,0,0,.048-.045,1.051,1.051,0,0,0,.066-.508c.066.029.1.048.1.051a.085.085,0,0,0,.125-.051,1.583,1.583,0,0,0-.01-.84c.086.046.154.089.155.09a.086.086,0,0,0,.078.007.085.085,0,0,0,.051-.06,1.513,1.513,0,0,0-.19-1.14.932.932,0,0,0-.711-.328v-.432a.085.085,0,1,0-.17,0v.432a.931.931,0,0,0-.711.328m.668,2.352a.406.406,0,0,1,.135-.26.363.363,0,0,1,.132.205.622.622,0,0,1-.139.471.7.7,0,0,1-.129-.416m.076-.434a.6.6,0,0,0-.239.367.69.69,0,0,1-.024-.419l0-.013a.06.06,0,0,0,.006-.017.6.6,0,0,1,.219-.277v.126a.085.085,0,1,0,.17,0v-.119a.656.656,0,0,1,.217.682.547.547,0,0,0-.264-.338.087.087,0,0,0-.091.009m.052-1.08a.085.085,0,0,0-.085.085v.433a.821.821,0,0,0-.368.392c-.046.018-.085.034-.115.047a1.188,1.188,0,0,1,.1-.788.513.513,0,0,1,.939,0,1.191,1.191,0,0,1,.1.788c-.036-.016-.084-.036-.144-.059a.84.84,0,0,0-.339-.381v-.433a.085.085,0,0,0-.085-.085m0-.875a.085.085,0,0,0-.085.085v.5a.858.858,0,0,0-.49.315,1.691,1.691,0,0,0-.264.124,1.235,1.235,0,0,1,.175-.878.96.96,0,0,1,1.327,0,1.236,1.236,0,0,1,.175.878,1.684,1.684,0,0,0-.263-.123.856.856,0,0,0-.491-.316v-.5a.085.085,0,0,0-.085-.085" transform="translate(-84.833 -144.603)" fill="#fff"/>
    <path id="Trazado_143" data-name="Trazado 143" d="M121.86,192.009a2.822,2.822,0,0,0-.352,2.119.158.158,0,0,0,.094.112.16.16,0,0,0,.146-.013s.13-.083.29-.168a2.943,2.943,0,0,0-.019,1.562.157.157,0,0,0,.093.1.159.159,0,0,0,.139-.01c.007,0,.057-.032.151-.075a1.752,1.752,0,0,0,.192.936.159.159,0,0,0,.2.07l0,0a1.968,1.968,0,0,0,.424.878.155.155,0,0,0,.123.053.158.158,0,0,0,.12-.06,2.1,2.1,0,0,0,.444-.87.161.161,0,0,0,.115,0,.158.158,0,0,0,.089-.083,1.945,1.945,0,0,0,.122-.943,2.155,2.155,0,0,1,.195.094.158.158,0,0,0,.233-.094,2.947,2.947,0,0,0-.018-1.561c.16.085.286.166.288.167a.158.158,0,0,0,.24-.1,2.812,2.812,0,0,0-.353-2.119,1.731,1.731,0,0,0-1.321-.609v-.8a.158.158,0,1,0-.317,0v.8a1.731,1.731,0,0,0-1.322.609m1.241,4.37a.755.755,0,0,1,.251-.484.674.674,0,0,1,.246.382,1.155,1.155,0,0,1-.258.874,1.3,1.3,0,0,1-.239-.772m.142-.806a1.116,1.116,0,0,0-.444.682,1.284,1.284,0,0,1-.044-.779l.007-.024a.11.11,0,0,0,.011-.032,1.113,1.113,0,0,1,.408-.515v.235a.158.158,0,0,0,.317,0v-.222a1.22,1.22,0,0,1,.4,1.267,1.013,1.013,0,0,0-.49-.628.162.162,0,0,0-.168.016m.1-2.007a.158.158,0,0,0-.158.158v.805a1.526,1.526,0,0,0-.684.729c-.086.033-.158.063-.213.088a2.209,2.209,0,0,1,.184-1.465.953.953,0,0,1,1.745,0,2.21,2.21,0,0,1,.183,1.465c-.067-.03-.157-.068-.268-.109a1.564,1.564,0,0,0-.631-.708v-.8a.158.158,0,0,0-.158-.158m0-1.626a.159.159,0,0,0-.158.158v.925a1.593,1.593,0,0,0-.909.585,3.122,3.122,0,0,0-.491.23,2.3,2.3,0,0,1,.326-1.631,1.782,1.782,0,0,1,2.465,0,2.3,2.3,0,0,1,.326,1.631,3.129,3.129,0,0,0-.488-.229,1.593,1.593,0,0,0-.912-.587V192.1a.159.159,0,0,0-.158-.158" transform="translate(-92.211 -144.603)" fill="#fff"/>
    <path id="Trazado_144" data-name="Trazado 144" d="M139.095,193.04a4.677,4.677,0,0,0-.584,3.509.262.262,0,0,0,.4.163s.215-.137.481-.278a4.873,4.873,0,0,0-.031,2.587.26.26,0,0,0,.154.173.264.264,0,0,0,.23-.016c.011-.007.094-.053.251-.124a2.9,2.9,0,0,0,.318,1.551.263.263,0,0,0,.327.115l.007,0a3.259,3.259,0,0,0,.7,1.455.257.257,0,0,0,.2.089.264.264,0,0,0,.2-.1,3.477,3.477,0,0,0,.735-1.441.268.268,0,0,0,.191,0,.262.262,0,0,0,.147-.138,3.22,3.22,0,0,0,.2-1.563c.2.089.31.149.323.156a.262.262,0,0,0,.386-.155,4.88,4.88,0,0,0-.03-2.585c.264.141.474.274.478.277a.262.262,0,0,0,.4-.164A4.658,4.658,0,0,0,144,193.04a2.866,2.866,0,0,0-2.188-1.009V190.7a.262.262,0,0,0-.524,0v1.331a2.865,2.865,0,0,0-2.189,1.009m2.056,7.238a1.251,1.251,0,0,1,.415-.8,1.116,1.116,0,0,1,.407.632,1.913,1.913,0,0,1-.427,1.447,2.148,2.148,0,0,1-.4-1.279m.235-1.336a1.849,1.849,0,0,0-.734,1.129,2.129,2.129,0,0,1-.074-1.29l.012-.04a.174.174,0,0,0,.019-.052,1.845,1.845,0,0,1,.675-.852v.388a.262.262,0,0,0,.524,0v-.368a2.021,2.021,0,0,1,.667,2.1,1.678,1.678,0,0,0-.811-1.041.268.268,0,0,0-.279.026m.161-3.325a.262.262,0,0,0-.262.262v1.334a2.53,2.53,0,0,0-1.133,1.207c-.143.055-.261.105-.353.146a3.661,3.661,0,0,1,.3-2.426,1.578,1.578,0,0,1,2.891,0,3.662,3.662,0,0,1,.3,2.426c-.112-.05-.26-.112-.444-.181a2.588,2.588,0,0,0-1.045-1.173V195.88a.262.262,0,0,0-.262-.262m0-2.694a.262.262,0,0,0-.262.262v1.532a2.64,2.64,0,0,0-1.506.969,5.166,5.166,0,0,0-.813.381,3.8,3.8,0,0,1,.54-2.7,2.953,2.953,0,0,1,4.082,0,3.8,3.8,0,0,1,.54,2.7,5.2,5.2,0,0,0-.807-.379,2.637,2.637,0,0,0-1.511-.971v-1.532a.262.262,0,0,0-.262-.262" transform="translate(-105.088 -144.603)" fill="#fff"/>
    <path id="Trazado_145" data-name="Trazado 145" d="M61.3,166.474a29.935,29.935,0,0,1-29.6-25.5.963.963,0,1,1,1.9-.283,28.149,28.149,0,0,0,27.7,23.86,27.839,27.839,0,0,0,27.67-23.674.963.963,0,0,1,1.9.3,29.935,29.935,0,0,1-29.573,25.3" transform="translate(-24.061 -106.203)" fill="#fff"/>
    <path id="Trazado_146" data-name="Trazado 146" d="M194.377,27.586a.963.963,0,0,1-.94-.759A28.14,28.14,0,0,0,170.475,5.118a.963.963,0,1,1,.3-1.9,29.957,29.957,0,0,1,24.543,23.2.963.963,0,0,1-.737,1.145.979.979,0,0,1-.2.022" transform="translate(-128.828 -2.433)" fill="#fff"/>
    <path id="Trazado_147" data-name="Trazado 147" d="M35.412,27.217a.964.964,0,0,1-.931-1.211,29.975,29.975,0,0,1,22.509-21.5A.963.963,0,0,1,57.4,6.39,28.232,28.232,0,0,0,36.342,26.5a.963.963,0,0,1-.93.715" transform="translate(-26.157 -3.407)" fill="#fff"/>
  </g>
</svg>
