<?xml version="1.0" encoding="utf-8"?>
<!-- Generator: Adobe Illustrator 26.4.1, SVG Export Plug-In . SVG Version: 6.00 Build 0)  -->
<svg version="1.0" id="Capa_1" xmlns="http://www.w3.org/2000/svg" xmlns:xlink="http://www.w3.org/1999/xlink" x="0px" y="0px"
	 viewBox="0 0 40 40" enable-background="new 0 0 40 40" xml:space="preserve">
<path fill="#EBF0F5" d="M21.2,39.6c-0.8,0-1.5,0-2.3,0c-0.1,0-0.2-0.1-0.3-0.1c-2.4-0.2-4.7-0.7-6.8-1.8c-7-3.5-10.8-9.2-11.3-16.9
	c-0.2-3.5,0.5-6.9,2.3-10c3.6-6.4,9.1-9.9,16.5-10.4c3.5-0.2,6.9,0.6,10,2.3c5.5,3,8.9,7.7,10.1,13.9c0.1,0.7,0.2,1.5,0.3,2.3
	c0,0.8,0,1.5,0,2.3c0,0.1-0.1,0.2-0.1,0.3c-0.2,2.7-0.9,5.4-2.3,7.8c-3.1,5.5-7.7,8.9-13.9,10.1C22.6,39.4,21.9,39.5,21.2,39.6z
	 M14.7,11.6c-1.1,1.1-2.1,2.1-3.1,3.1c0.1,0.1,0.2,0.2,0.3,0.3c1.5,1.5,3.1,3,4.6,4.5c0.4,0.4,0.4,0.5,0,1c-1,1-2,2-3,2.9
	c-0.6,0.6-1.3,1.2-2,1.8c1,1,2.1,2.1,3.1,3.2c0.1-0.1,0.2-0.3,0.3-0.4c1.5-1.5,3-3.1,4.5-4.6c0.5-0.5,0.5-0.5,0.9,0
	c1.4,1.4,2.7,2.8,4.1,4.1c0.2,0.3,0.5,0.5,0.7,0.8c1-1,2.1-2.1,3.1-3.1c-0.1-0.1-0.2-0.2-0.3-0.3c-1.5-1.5-3.1-3-4.6-4.5
	C23,20,23,20,23.5,19.6c1.4-1.4,2.7-2.7,4.1-4c0.3-0.3,0.6-0.5,0.8-0.8c-1-1-2.1-2.1-3.2-3.2c-0.1,0.1-0.1,0.2-0.2,0.3
	c-1.5,1.5-3,3-4.5,4.5C20,17,20,17,19.5,16.4c-0.8-0.8-1.6-1.6-2.4-2.4C16.3,13.2,15.5,12.4,14.7,11.6z"/>
</svg>
