<?xml version="1.0" encoding="utf-8"?>
<!-- Generator: Adobe Illustrator 26.4.1, SVG Export Plug-In . SVG Version: 6.00 Build 0)  -->
<svg version="1.1" id="Capa_1" xmlns="http://www.w3.org/2000/svg" xmlns:xlink="http://www.w3.org/1999/xlink" x="0px" y="0px"
	 viewBox="0 0 170.2 169" style="enable-background:new 0 0 170.2 169;" xml:space="preserve">
<style type="text/css">
	.st0{fill:#F0730D;}
	.st1{fill:#172532;}
	.st2{clip-path:url(#SVGID_00000029031817198411708340000006177986058599942017_);}
	.st3{fill:#FCFFEC;}
	.st4{fill:#F58D12;}
	.st5{fill:#BAB9B9;}
</style>
<g id="Grupo_28" transform="translate(-692 -239)">
	<path id="Trazado_31" class="st0" d="M780.1,263.9c20.7,18.6,61.8,26,61.8,60.2s-4.1,102-61.8,61.8c-57.7-40.1-61.8-27.7-61.8-61.8
		S759.4,245.3,780.1,263.9z"/>
	<path id="Trazado_32" class="st1" d="M781.4,267.2c44.2-32.8,23.7,45.3,53.7,61.8s-19.6,61.8-53.7,61.8
		c-34.1,0-79.4-31.3-61.8-61.8C737.1,298.4,737.2,300,781.4,267.2z"/>
	<g>
		<defs>
			<rect id="SVGID_1_" x="698.8" y="242.6" width="156.5" height="153.1"/>
		</defs>
		<clipPath id="SVGID_00000047761491926614058480000012652875125137861775_">
			<use xlink:href="#SVGID_1_"  style="overflow:visible;"/>
		</clipPath>
		
			<g id="Grupo_2" transform="translate(692 239)" style="clip-path:url(#SVGID_00000047761491926614058480000012652875125137861775_);">
			<path id="Trazado_33" class="st3" d="M75.3,18.6c-1.5,0-2.7-1.2-2.7-2.7c0-1.5,1.2-2.7,2.7-2.7s2.7,1.2,2.7,2.7c0,0,0,0,0,0
				C78.1,17.4,76.8,18.6,75.3,18.6 M75.3,14.3c-0.9,0-1.6,0.7-1.6,1.6c0,0.9,0.7,1.6,1.6,1.6c0.9,0,1.6-0.7,1.6-1.6v0
				C77,15,76.2,14.3,75.3,14.3"/>
			<path id="Trazado_34" class="st3" d="M22.8,82.1c-1.5,0-2.7-1.2-2.7-2.7c0-1.5,1.2-2.7,2.7-2.7c1.5,0,2.7,1.2,2.7,2.7l0,0
				C25.6,80.8,24.3,82.1,22.8,82.1 M22.8,77.7c-0.9,0-1.6,0.7-1.6,1.6c0,0.9,0.7,1.6,1.6,1.6c0.9,0,1.6-0.7,1.6-1.6l0,0
				C24.5,78.4,23.7,77.7,22.8,77.7"/>
			<path id="Trazado_35" class="st3" d="M134.7,109.2c-1.5,0-2.7-1.2-2.7-2.7c0-1.5,1.2-2.7,2.7-2.7c1.5,0,2.7,1.2,2.7,2.7
				c0,0,0,0,0,0C137.4,108,136.2,109.2,134.7,109.2 M134.7,104.9c-0.9,0-1.6,0.7-1.6,1.6s0.7,1.6,1.6,1.6c0.9,0,1.6-0.7,1.6-1.6l0,0
				C136.3,105.6,135.6,104.9,134.7,104.9"/>
			<path id="Trazado_36" class="st3" d="M38.1,151.2c-1.5,0-2.7-1.2-2.7-2.7c0-1.5,1.2-2.7,2.7-2.7s2.7,1.2,2.7,2.7l0,0
				C40.8,149.9,39.6,151.2,38.1,151.2 M38.1,146.8c-0.9,0-1.6,0.7-1.6,1.6s0.7,1.6,1.6,1.6s1.6-0.7,1.6-1.6l0,0
				C39.7,147.5,39,146.8,38.1,146.8"/>
			<path id="Trazado_37" class="st3" d="M43.4,108.7c-1.5,0-2.7-1.2-2.7-2.7c0-1.5,1.2-2.7,2.7-2.7s2.7,1.2,2.7,2.7l0,0
				C46.1,107.5,44.9,108.7,43.4,108.7 M43.4,104.4c-0.9,0-1.6,0.7-1.6,1.6c0,0.9,0.7,1.6,1.6,1.6s1.6-0.7,1.6-1.6l0,0
				C45,105.1,44.3,104.4,43.4,104.4"/>
			<path id="Trazado_38" class="st3" d="M141.3,78.9c-2.4,0-4.4-2-4.4-4.4c0-2.4,2-4.4,4.4-4.4c2.4,0,4.4,2,4.4,4.4
				C145.6,76.9,143.7,78.9,141.3,78.9 M141.3,71.2c-1.8,0-3.3,1.5-3.3,3.3s1.5,3.3,3.3,3.3s3.3-1.5,3.3-3.3c0,0,0,0,0,0
				C144.5,72.7,143.1,71.2,141.3,71.2"/>
			<path id="Trazado_39" class="st3" d="M45.9,124.7c-2.4,0-4.4-2-4.4-4.4c0-2.4,2-4.4,4.4-4.4c2.4,0,4.4,2,4.4,4.4
				C50.2,122.7,48.3,124.7,45.9,124.7 M45.9,117c-1.8,0-3.3,1.5-3.3,3.3c0,1.8,1.5,3.3,3.3,3.3s3.3-1.5,3.3-3.3c0,0,0,0,0,0
				C49.1,118.5,47.7,117,45.9,117"/>
			<path id="Trazado_40" class="st3" d="M135.9,129.2c-2.4,0-4.4-2-4.4-4.4c0-2.4,2-4.4,4.4-4.4c2.4,0,4.4,2,4.4,4.4c0,0,0,0,0,0
				C140.2,127.2,138.3,129.2,135.9,129.2 M135.9,121.5c-1.8,0-3.3,1.5-3.3,3.3c0,1.8,1.5,3.3,3.3,3.3s3.3-1.5,3.3-3.3c0,0,0,0,0,0
				C139.1,123,137.7,121.5,135.9,121.5"/>
			<path id="Trazado_41" class="st4" d="M32.4,77.1c-2.4,0-4.4-2-4.4-4.4c0-2.4,2-4.4,4.4-4.4c2.4,0,4.4,2,4.4,4.4
				C36.8,75.1,34.8,77.1,32.4,77.1 M32.4,69.4c-1.8,0-3.3,1.5-3.3,3.3c0,1.8,1.5,3.3,3.3,3.3c1.8,0,3.3-1.5,3.3-3.3
				C35.7,70.9,34.2,69.4,32.4,69.4"/>
			<path id="Trazado_42" class="st4" d="M53.8,23.5c-3.5,0-6.4-2.9-6.4-6.4s2.9-6.4,6.4-6.4c3.5,0,6.4,2.9,6.4,6.4v0
				C60.2,20.6,57.4,23.5,53.8,23.5 M53.8,11.8c-2.9,0-5.3,2.4-5.3,5.3s2.4,5.3,5.3,5.3c2.9,0,5.3-2.4,5.3-5.3c0,0,0,0,0,0
				C59.1,14.2,56.8,11.8,53.8,11.8"/>
			<path id="Trazado_43" class="st4" d="M121.6,20.7c-3.5,0-6.4-2.9-6.4-6.4s2.9-6.4,6.4-6.4c3.5,0,6.4,2.9,6.4,6.4
				C128,17.8,125.1,20.7,121.6,20.7 M121.6,9c-2.9,0-5.3,2.4-5.3,5.3s2.4,5.3,5.3,5.3c2.9,0,5.3-2.4,5.3-5.3c0,0,0,0,0,0
				C126.9,11.4,124.5,9,121.6,9"/>
			<path id="Trazado_44" class="st3" d="M49.1,156.6c-2.4,0-4.4-2-4.4-4.4c0-2.4,2-4.4,4.4-4.4c2.4,0,4.4,2,4.4,4.4
				C53.5,154.7,51.5,156.6,49.1,156.6 M49.1,149c-1.8,0-3.3,1.5-3.3,3.3s1.5,3.3,3.3,3.3s3.3-1.5,3.3-3.3c0,0,0,0,0,0
				C52.4,150.4,50.9,149,49.1,149"/>
			<path id="Trazado_45" class="st3" d="M20.2,65.2c-0.9,0-1.7-0.2-2.5-0.5l-0.1-0.1c-0.1-0.1-2.4-1.6-2.9-3.6
				c-0.2-0.7,0-1.5,0.4-2.1c1.7-2.5,6.5-5.4,6.7-5.5l0.5-0.3l0.3,0.5c0.1,0.1,1.8,3.6,1.4,7.2c-0.2,2-0.9,3.3-1.9,3.9
				C21.4,65.1,20.8,65.2,20.2,65.2 M18.1,63.7c1.5,0.5,2.6,0.6,3.3,0.1c0.8-0.5,1.2-1.5,1.4-3.1c0.3-2.5-0.6-5-1-6
				c-1.3,0.8-4.6,3-5.8,4.9c-0.3,0.4-0.4,0.9-0.3,1.3C16,62.2,17.8,63.4,18.1,63.7"/>
			<path id="Trazado_46" class="st3" d="M22,54.3l-1.1-0.2c0.2-1.4-0.5-3-0.9-3.6c-1.6,0.3-3.1,1.9-3.2,1.9l-0.8-0.7
				c0.1-0.1,2-2.1,4.2-2.3l0.3,0l0.2,0.3C20.9,49.7,22.4,52,22,54.3"/>
			<path id="Trazado_47" class="st3" d="M15.2,62.8c-0.8,0-2.1-0.2-3.3-1.7c-1.1-1.4-1.7-3.2-1.5-5c0.1-1.3,0.7-2.3,1.6-2.9
				c1.3-0.9,2.6-1.7,4-2.4l0.4-0.2l0.3,0.4c0.1,0.1,1.8,2.8,2,5.6l-1.1,0.1c-0.1-1.9-1.1-3.8-1.5-4.7c-1.2,0.6-2.3,1.3-3.4,2.1
				c-0.8,0.6-1,1.5-1.1,2.2c-0.2,1.5,0.3,3,1.2,4.1c1.4,1.6,2.8,1.3,2.9,1.3l0.3,1.1C15.7,62.7,15.5,62.8,15.2,62.8"/>
			<path id="Trazado_48" class="st3" d="M24.2,65.9c-1.2,0-2.3-0.4-3.2-1l0.7-0.9c0.1,0.1,2.6,1.9,5.1-0.1c2.1-1.7,1.2-5.7,0.9-7.2
				c-1.5,0.5-3.4,1.4-3.8,1.9L22.9,58c0.7-1.2,4.2-2.3,4.9-2.6l0.5-0.2l0.2,0.5c0.1,0.3,2,6.4-1.1,8.9
				C26.5,65.5,25.3,65.9,24.2,65.9"/>
			<path id="Trazado_49" class="st3" d="M26.6,56.3c-0.1-1.3-0.5-2.5-1-3.6c-0.5,0.1-1.8,1-2.9,2.1L21.9,54c1.4-1.3,3.3-2.8,4.3-2.3
				l0.1,0.1l0.1,0.1c0,0.1,0.9,1.6,1.2,4.3L26.6,56.3z"/>
			<path id="Trazado_50" class="st3" d="M24.7,52.4c-0.2-1-0.5-2-1-2.9c-0.9,0.5-1.8,1-2.6,1.7l-0.7-0.8c0.1-0.1,1.7-1.5,3.3-2.1
				l0.4-0.1l0.3,0.3c0.1,0.1,0.8,1,1.4,3.8L24.7,52.4z"/>
			<path id="Trazado_51" class="st3" d="M19,67.6c-0.8,0-1.7-0.2-2.5-0.4c-1.6-0.5-2.7-1.4-3.2-2.5c-0.4-1-0.4-2.1-0.1-3l1,0.4
				l-0.5-0.2l0.5,0.2c-0.3,0.7-0.2,1.5,0.1,2.2c0.4,0.8,1.3,1.5,2.6,1.9c3.9,1.3,5.4-1.1,5.5-1.2l0.9,0.6C23.3,65.5,22,67.6,19,67.6
				"/>
			<path id="Trazado_52" class="st3" d="M151.2,61.7L151.2,61.7l-0.1,0c-0.1,0-2.9-0.6-3.9-2.3c-0.4-0.6-0.5-1.4-0.4-2.2
				c0.7-2.9,4.1-7.3,4.3-7.5l0.4-0.5l0.4,0.4c0.1,0.1,2.9,2.7,3.8,6.3c0.5,1.9,0.4,3.4-0.4,4.4C154.5,61.2,153.2,61.7,151.2,61.7
				 M151.6,50.9c-0.9,1.2-3.2,4.4-3.7,6.6c-0.1,0.5,0,0.9,0.2,1.3c0.8,1.2,2.8,1.7,3.2,1.8c1.5,0,2.6-0.4,3.1-1
				c0.5-0.7,0.6-1.8,0.2-3.4C154,53.7,152.3,51.7,151.6,50.9"/>
			<path id="Trazado_53" class="st3" d="M150.6,50.7c-0.3-1.4-1.5-2.6-2.1-3c-1.4,0.9-2.3,2.9-2.3,2.9l-1-0.4c0-0.1,1.1-2.7,3.1-3.7
				l0.3-0.1l0.3,0.2c0.1,0.1,2.3,1.6,2.8,3.9L150.6,50.7z"/>
			<path id="Trazado_54" class="st3" d="M146.9,61c-0.8,0-1.6-0.2-2.3-0.6c-1.6-0.9-2.7-2.4-3.1-4.1c-0.3-1.2-0.2-2.4,0.4-3.3
				c0.9-1.3,1.9-2.6,2.9-3.7l0.3-0.3l0.4,0.3c0.1,0.1,2.7,1.9,3.8,4.6l-1,0.4c-0.8-1.8-2.4-3.2-3.1-3.8c-0.9,1-1.7,2.1-2.5,3.2
				c-0.5,0.8-0.4,1.8-0.3,2.4c0.4,1.4,1.3,2.7,2.6,3.4c1.9,1,3.1,0.2,3.1,0.2l0.6,0.9C148.3,60.8,147.6,61,146.9,61"/>
			<path id="Trazado_55" class="st3" d="M155.8,60.9c-0.5,0-0.9-0.1-1.4-0.2l0.3-1.1l-0.2,0.5l0.2-0.5c0.1,0,3.1,0.8,4.7-1.9
				c1.3-2.3-0.9-5.8-1.7-7.1c-1.2,1-2.7,2.5-2.9,3.1l-1.1-0.2c0.3-1.4,3.1-3.7,3.7-4.1l0.4-0.3l0.3,0.4c0.2,0.2,4.2,5.3,2.2,8.7
				C159.5,60,157.7,61,155.8,60.9"/>
			<path id="Trazado_56" class="st3" d="M156.6,50.7c-0.6-1.1-1.3-2.1-2.2-3c-0.4,0.3-1.3,1.6-2,3l-1-0.5c0.9-1.7,2.1-3.8,3.2-3.7
				l0.2,0l0.1,0.1c0.1,0,1.4,1.1,2.7,3.6L156.6,50.7z"/>
			<path id="Trazado_57" class="st3" d="M149.7,47.8l-1-0.5c0-0.1,1.1-2,2.3-3.1l0.3-0.3l0.3,0.2c0.1,0.1,1.1,0.6,2.7,3l-0.9,0.6
				c-0.5-0.9-1.2-1.7-1.9-2.4C150.8,46.1,150.2,46.9,149.7,47.8"/>
			<path id="Trazado_58" class="st3" d="M150.6,64.5c-1.5,0-2.7-0.4-3.5-1.2c-0.7-0.8-1.1-1.8-1.1-2.8l1.1,0l-0.6,0l0.6,0
				c0,0.7,0.3,1.5,0.8,2c0.7,0.7,1.7,0.9,3.1,0.9c4.1-0.2,4.7-3,4.7-3.1l1.1,0.2c0,0-0.7,3.7-5.7,4
				C150.9,64.5,150.8,64.5,150.6,64.5"/>
			<path id="Trazado_59" class="st3" d="M143,153.7L143,153.7c-0.2,0-3-0.1-4.4-1.5c-0.5-0.5-0.8-1.3-0.8-2c0.1-3,2.6-8,2.7-8.2
				l0.3-0.5l0.5,0.3c0.1,0.1,3.4,2.1,5,5.4c0.9,1.8,1,3.2,0.4,4.4C146.2,152.6,145,153.4,143,153.7L143,153.7z M141.3,143
				c-0.7,1.4-2.3,5-2.3,7.2c0,0.5,0.1,0.9,0.5,1.3c1,1,3.1,1.2,3.5,1.2c1.5-0.3,2.5-0.9,2.9-1.6c0.4-0.8,0.2-1.9-0.4-3.4
				C144.2,145.4,142.2,143.7,141.3,143"/>
			<path id="Trazado_60" class="st3" d="M136,143.4l-1.1-0.2c0-0.1,0.5-2.5,2.2-3.8l0.3-0.2l0.3,0.1c0.1,0,2.6,1.2,3.5,3.3l-1,0.4
				c-0.6-1.3-2-2.2-2.7-2.6C136.4,141.6,136,143.4,136,143.4"/>
			<path id="Trazado_61" class="st3" d="M137.8,154c-0.5,0-1-0.1-1.5-0.2c-1.7-0.6-3.1-1.8-3.9-3.5c-0.6-1.2-0.6-2.3-0.2-3.3
				c0.6-1.5,1.3-2.9,2.1-4.2l0.3-0.4l0.4,0.2c0.1,0.1,3,1.4,4.7,3.7l-0.9,0.6c-1.1-1.6-2.9-2.7-3.8-3.1c-0.7,1.2-1.3,2.4-1.8,3.6
				c-0.4,0.9-0.1,1.8,0.2,2.4c0.7,1.3,1.8,2.4,3.2,2.9c2,0.6,3.1-0.4,3.1-0.5l0.8,0.8C139.8,153.6,138.8,154,137.8,154"/>
			<path id="Trazado_62" class="st3" d="M146.3,152.2c-0.1,0-0.2,0-0.3,0l0.1-1.1c0.1,0,3.2,0.2,4.3-2.8c0.8-2.5-2-5.5-3.1-6.6
				c-1,1.3-2.2,3-2.2,3.6l-1.1,0c0-1.4,2.3-4.2,2.8-4.8l0.4-0.4l0.4,0.4c0.2,0.2,5.1,4.3,3.8,8.1
				C150.4,151.5,147.8,152.2,146.3,152.2"/>
			<path id="Trazado_63" class="st3" d="M142.1,142.7l-1.1-0.3c0.5-1.9,1.3-4.1,2.4-4.2l0.2,0l0.1,0.1c0.1,0,1.6,0.8,3.3,3l-0.9,0.7
				c-0.8-1-1.7-1.8-2.8-2.6C143.1,139.7,142.5,141.2,142.1,142.7"/>
			<path id="Trazado_64" class="st3" d="M138.9,140.4l-1.1-0.3c0-0.1,0.7-2.1,1.7-3.5l0.2-0.3l0.4,0.1c0.1,0,1.2,0.4,3.2,2.4
				l-0.8,0.8c-0.7-0.8-1.5-1.4-2.4-2C139.6,138.5,139.2,139.4,138.9,140.4"/>
			<path id="Trazado_65" class="st3" d="M141.7,156.7c-0.8,0-1.6-0.2-2.3-0.6c-0.9-0.6-1.5-1.5-1.7-2.5l1.1-0.2l-0.5,0.1l0.5-0.1
				c0.2,0.7,0.6,1.4,1.2,1.8c0.8,0.5,1.9,0.6,3.2,0.3c4-1,4-3.9,4-3.9l1.1,0c0,0,0,3.8-4.8,5C142.9,156.6,142.3,156.7,141.7,156.7"
				/>
			<path id="Trazado_66" class="st4" d="M153.6,96.3c0.6,0.1,1.1,0.1,1.7,0.1c2.5,0,6.8-1,8-7.4l0-0.2l0,0c0-0.4-0.4-0.6-0.7-0.6
				c-0.2,0-0.5,0.2-0.5,0.4c-0.4,0.8-0.9,1.6-1.4,2.3c-0.2,0-0.5-0.1-0.7-0.2c-0.8-0.3-1.7-0.5-2.5-0.5c-1.2,0.1-2.3,0.5-3.3,1.3
				c0.2-0.5,0.3-1,0.4-1.4c0,0,0,0,0,0c0,0,0,0,0.1,0c0.5,0,4.8-0.2,6.2-5.9c1-4.8,0.5-7.2,0.1-7.9l0,0l-0.3-0.2
				c-0.2-0.1-0.4-0.2-0.7-0.1c-0.4,0.2-0.4,0.5-0.4,1.2c0,1.2-0.1,3.9-1.4,5.7c-0.1,0.2-0.2,0.3-0.3,0.4c0.1-0.9,0.2-1.7,0.2-2.6
				c0-0.2,0-0.4,0-0.4c0.3-1.4-0.5-9.5-1.6-10.5c-0.3-0.3-0.7-0.3-1-0.1c-0.6,0.4-0.5,1.2-0.3,2.9c0.2,2,0.5,5-0.4,7.1
				c-0.5,1.2-0.9,2.5-1,3.8c-0.3-0.5-0.5-1-0.7-1.5c-0.5-1.8-0.2-3.9,0-5c0.1-0.8,0.2-1.1-0.1-1.4c-0.2-0.2-0.4-0.2-0.7-0.1
				c-1,0.4-1.7,3.9-2.1,6.8c-0.8,5.1,2.9,7.4,2.9,7.4c0.1,0,0.1,0.1,0.2,0.1c-0.2,0.5-0.3,1-0.5,1.6c-0.3-1.2-1-2.3-2.1-3.1
				c-0.8-0.4-1.6-0.8-2.4-1c-0.2-0.1-0.6-0.2-0.7-0.2c-0.1-0.6-0.2-1.3-0.2-1.9c0-0.3,0-0.6-0.3-0.7c-0.2-0.1-0.4-0.1-0.6-0.1
				c-0.2,0.1-0.3,0.2-0.4,0.4c-2,4.9,1.4,8.8,5.2,10.8c-0.3,0.8-0.6,1.5-1,2.3c-0.1-1.3-0.7-2.6-1.8-3.4c-0.7-0.5-1.5-0.9-2.3-1.2
				c-0.2-0.1-0.5-0.2-0.7-0.3c0-0.6,0-1.3,0-1.9c0-0.4,0-0.6-0.2-0.8c-0.3-0.2-0.7-0.2-0.9,0.1c0,0-0.1,0.1-0.1,0.1
				c-3.3,6,2.8,10.5,4,11.4c0,0,0,0,0,0c-0.4,0.7-0.7,1.3-1.1,2c0.1-1.5-0.7-3.8-3.1-5.3c-0.4-0.3-0.8-0.7-1.1-1.2
				c-0.1-0.2-0.3-0.3-0.6-0.3c-0.3,0-0.5,0.2-0.6,0.4c-1.5,3.7-0.5,6.3,0.5,7.8c0.9,1.2,2.1,2.1,2.6,2.2c-0.8,1.2-1.6,2.3-2.5,3.4
				c-0.2,0.3-0.2,0.7,0.1,0.9c0,0,0,0,0,0c0.1,0.1,0.3,0.1,0.4,0.1c0.2,0,0.4-0.1,0.5-0.3c0.8-1.1,1.7-2.2,2.4-3.3
				c1.1,0.8,2.4,1.3,3.7,1.3c0.2,0,0.5,0,0.7,0c2.1-0.3,4.1-1.7,6-4.3l0.1-0.1l-0.5-0.3l0-0.6l-0.2,0c-0.5,0-1.1,0-1.6-0.2
				c-1.7-0.8-3.7-0.8-5.5-0.1c0.3-0.5,0.5-0.9,0.8-1.4c0.4,0.1,0.7,0.2,1.1,0.3c0.9,0.2,1.8,0.4,2.7,0.4c2.6,0,6.1-1.1,7.7-6.5
				l0-0.2l0,0c0-0.3-0.2-0.6-0.5-0.7c-0.3-0.1-0.6,0.1-0.7,0.3c-0.5,0.7-1.1,1.5-1.7,2.1c-0.2-0.1-0.5-0.2-0.7-0.3
				c-0.8-0.4-1.6-0.6-2.5-0.8c-1.2-0.1-2.3,0.2-3.3,0.8c0.3-0.6,0.6-1.3,0.8-1.9C152.8,96.2,153.2,96.3,153.6,96.3L153.6,96.3z
				 M151.3,94.1c-1.4-0.8-4.2-2.9-4.5-5.9c0.4,0.2,0.7,0.3,1.1,0.4c0.7,0.2,1.4,0.4,2.1,0.8C151.2,90.2,152,92.2,151.3,94.1
				 M159.5,92.1c0.4,0.1,0.8,0.2,1.2,0.3c-0.5,0.8-1.2,1.5-2.1,2c-2,1.1-4.3,0.8-5.4,0.6c0.9-2.1,2.7-3.2,4.2-3.2
				C158.1,91.7,158.8,91.8,159.5,92.1 M153,88c-0.9-0.9-2-2.7-1.6-5.5c0-0.3,0.1-0.6,0.1-1c0,0.3,0.1,0.6,0.2,0.8
				c0.2,0.7,0.5,1.5,0.9,2.1C153.2,85.3,153.5,85.9,153,88 M156.8,80c0,0.1-0.1,0.1-0.1,0.2c0,0.1,0,0.3,0,0.6
				c-0.1,2-0.3,4.4-1.8,5.2c-0.1-1.9,0.2-3.9,1-5.7c0.5-1.2,0.7-2.4,0.8-3.6C156.8,78.4,156.9,79.7,156.8,80 M155.5,88.8
				c0.6-2.2,1.2-2.6,1.9-3.2c0.7-0.5,1.3-1.1,1.8-1.8c0.2-0.2,0.3-0.5,0.4-0.7c-0.1,0.3-0.1,0.7-0.2,1
				C158.7,87.4,156.8,88.5,155.5,88.8 M150.3,101.3c1.1-2,3.1-2.8,4.5-2.7c0.7,0.1,1.4,0.3,2.1,0.6c0.4,0.2,0.8,0.3,1.2,0.4
				c-0.6,0.8-1.4,1.4-2.3,1.7C153.6,102.2,151.3,101.6,150.3,101.3 M148.5,100.3c-1.3-1-3.8-3.3-3.8-6.3c0.3,0.2,0.7,0.4,1,0.5
				c0.7,0.3,1.4,0.6,2,1C148.8,96.4,149.4,98.4,148.5,100.3 M153.7,105.2c0.3,0.1,0.6,0.2,0.9,0.2c-1.4,1.6-2.8,2.5-4.3,2.7
				c-1.1,0.1-2.3-0.2-3.2-0.8c0.3-0.6,0.8-1.2,1.3-1.8C149.1,104.9,151.3,104.2,153.7,105.2 M142.7,99c0.2,0.2,0.4,0.4,0.7,0.6
				c2.1,1.4,2.7,3.5,2.5,4.5c-0.2,0.6-0.7,1.4-1,1.8C143.9,105.1,141.6,103,142.7,99"/>
			<path id="Trazado_67" class="st4" d="M31,153c-1-0.9-2-1.9-3-2.9c0.5-0.1,1.6-1.2,2.2-2.5c0.8-1.6,1.3-4.3-0.7-7.7
				c-0.2-0.3-0.6-0.4-0.9-0.2c-0.1,0.1-0.2,0.2-0.3,0.3c-0.2,0.5-0.5,0.9-0.9,1.3c-2.1,1.9-2.6,4.3-2.2,5.7
				c-0.5-0.6-0.9-1.2-1.4-1.8c0,0,0,0,0,0c1.1-1,6.4-6.4,2.2-11.9c-0.1-0.2-0.3-0.3-0.5-0.3c-0.2,0-0.4,0.1-0.5,0.2
				c-0.2,0.2-0.2,0.5-0.1,0.8c0.1,0.6,0.2,1.3,0.3,1.9c-0.1,0.1-0.4,0.3-0.6,0.4c-0.8,0.4-1.5,0.9-2.1,1.6c-0.9,1-1.3,2.3-1.2,3.7
				c-0.5-0.7-0.9-1.4-1.3-2.1c1.2-0.9,7-5.7,3.5-11.5c-0.2-0.3-0.6-0.4-0.9-0.2c0,0-0.1,0.1-0.1,0.1c-0.2,0.2-0.2,0.4-0.2,0.8
				c0.1,0.6,0.1,1.3,0.1,2c-0.2,0.1-0.5,0.2-0.7,0.3c-0.8,0.3-1.6,0.8-2.2,1.3c-0.9,0.9-1.5,2.1-1.6,3.3c-0.2-0.5-0.5-1-0.7-1.5
				c0.1,0,0.1-0.1,0.2-0.1c0,0,3.3-2.9,1.7-7.8c-0.9-2.8-2.1-6.2-3.2-6.4c-0.2,0-0.5,0.1-0.6,0.2c-0.3,0.3-0.2,0.6,0.1,1.4
				c0.3,1.1,1,3.2,0.8,5c-0.1,0.6-0.2,1.1-0.4,1.6c-0.4-1.3-0.9-2.5-1.6-3.6c-1.3-1.9-1.4-4.9-1.5-6.9c-0.1-1.8-0.1-2.6-0.8-2.9
				c-0.3-0.1-0.7,0-1,0.3c-0.9,1.2-0.4,9.3,0.1,10.6c0,0.1,0.1,0.2,0.1,0.4c0.1,0.8,0.4,1.7,0.6,2.5c-0.1-0.1-0.3-0.2-0.4-0.4
				c-1.5-1.6-2-4.3-2.3-5.5c-0.1-0.7-0.2-1-0.6-1.1c-0.2-0.1-0.5,0-0.6,0.2l0,0l0,0l-0.1,0.1l0,0c-0.4,0.7-0.6,3.1,1.2,8
				c1.2,2.9,3,4.1,4.3,4.5c0.6,0.2,1.3,0.3,2,0.3c0.3,0,0.5,0,0.8-0.1c0,0,0,0,0,0c0.2,0.5,0.4,0.9,0.7,1.3c-1-0.6-2.2-0.9-3.4-0.7
				c-0.9,0.2-1.7,0.4-2.4,0.9c-0.2,0.1-0.5,0.3-0.7,0.3c-0.6-0.6-1.2-1.3-1.8-2c-0.2-0.3-0.6-0.4-0.9-0.2c-0.2,0.1-0.3,0.4-0.3,0.6
				l0,0l0.1,0.2c1.1,3,2.8,4.9,5,5.7c0.8,0.3,1.7,0.4,2.6,0.4c1.1,0,2.1-0.2,3.2-0.5c0.4-0.1,0.7-0.2,1.1-0.4
				c0.4,0.6,0.7,1.2,1.1,1.8c-1.1-0.4-2.2-0.5-3.4-0.3c-0.8,0.2-1.6,0.6-2.3,1.1c-0.2,0.1-0.5,0.3-0.7,0.4c-0.7-0.6-1.4-1.2-2-1.8
				c-0.2-0.3-0.6-0.3-0.9-0.1c-0.2,0.2-0.3,0.4-0.2,0.6l0,0l0.1,0.2c1.2,2.5,2.9,4.2,4.9,4.9c0.8,0.3,1.6,0.4,2.4,0.4
				c1.4,0,2.7-0.3,3.9-0.9c0.4-0.2,0.7-0.3,1-0.5c0.3,0.4,0.7,0.9,1,1.3c-1.9-0.4-3.8,0-5.4,1c-0.5,0.2-1,0.4-1.5,0.4l-0.2,0l0,0.6
				l-0.4,0.4l0.1,0.1c1.4,1.4,2.8,2.4,4.2,2.9c0.7,0.2,1.4,0.4,2.1,0.4c0.1,0,0.1,0,0.2,0c1.6-0.1,3.1-0.8,4.1-1.9
				c0.9,1,1.9,2,2.9,2.9c0.1,0.1,0.1,0.1,0.2,0.1l0,0c0.3,0.1,0.7-0.1,0.8-0.4C31.3,153.5,31.2,153.2,31,153 M26.7,146.9
				c-0.4-0.9-0.2-3.1,1.7-4.8c0.2-0.2,0.4-0.4,0.6-0.7c1.7,3.8-0.2,6.3-1,7.1C27.6,148.2,27,147.5,26.7,146.9 M21.9,144.9
				c-1,0.5-3.1,1.4-5.4,0.9c-0.9-0.2-1.8-0.7-2.5-1.4c0.4-0.1,0.8-0.3,1.1-0.6c0.6-0.4,1.2-0.7,1.9-1
				C18.4,142.6,20.5,143.1,21.9,144.9 M23.6,138.8c0.5-0.5,1.1-1,1.8-1.3c0.3-0.2,0.7-0.4,1-0.7c0.5,3-1.7,5.7-2.8,6.9
				C22.3,142,22.6,139.9,23.6,138.8 M20.4,133.2c0.6-0.5,1.2-0.8,1.9-1.1c0.4-0.1,0.7-0.3,1-0.6c0.1,3-2.3,5.5-3.6,6.5
				C18.8,136.2,19.3,134.2,20.4,133.2 M12.4,125.7c0-0.3-0.1-0.5-0.1-0.6c0-0.1,0-0.1-0.1-0.2c-0.1-0.3-0.3-1.6-0.4-3.3
				c0.2,1.2,0.7,2.4,1.3,3.4c1,1.6,1.7,3.5,1.9,5.4C13.1,130,12.6,126.9,12.4,125.7 M14.8,133.4c-1.3-0.1-3.3-0.8-4.6-4
				c-0.1-0.3-0.3-0.7-0.4-1c0.2,0.2,0.4,0.5,0.6,0.7c0.6,0.6,1.3,1.1,2.1,1.5C13.2,131,13.8,131.4,14.8,133.4 M16.9,128.8
				c0.3-0.7,0.5-1.4,0.6-2.2c0-0.3,0-0.6,0.1-0.9c0.1,0.3,0.2,0.6,0.3,0.9c0.9,2.7,0,4.6-0.7,5.6C16.3,130.3,16.6,129.7,16.9,128.8
				 M12.6,139.6l0-0.2c-0.9-0.3-1.7-0.9-2.4-1.6c0.4-0.1,0.8-0.3,1.2-0.5c0.6-0.4,1.3-0.6,2-0.7c1.4-0.2,3.5,0.5,4.6,2.5
				c-1,0.4-3.3,1.1-5.4,0.3L12.6,139.6L12.6,139.6z M24.5,148.8c0.6,0.4,1.1,1,1.6,1.5c-0.8,0.8-1.9,1.3-3,1.3c-1.5,0.1-3-0.6-4.7-2
				c0.3-0.1,0.5-0.2,0.8-0.3C21.4,147.9,23.6,148.3,24.5,148.8"/>
			<path id="Trazado_68" class="st3" d="M56.3,40.4C56.3,40.4,56.2,40.4,56.3,40.4c-0.4,0-0.6-0.3-0.5-0.6c0,0,0,0,0,0
				c1.1-9.1,8.3-10,8.3-10c0.3,0,0.6,0.2,0.6,0.5c0,0.3-0.2,0.6-0.5,0.6c-0.3,0-6.4,0.8-7.4,9C56.8,40.2,56.6,40.4,56.3,40.4"/>
			<path id="Trazado_69" class="st3" d="M138.6,31.8c-0.3,0-0.6-0.2-0.6-0.6v-3.3c0-0.3,0.2-0.6,0.6-0.6c0.3,0,0.6,0.2,0.6,0.6v3.3
				C139.1,31.5,138.9,31.8,138.6,31.8"/>
			<path id="Trazado_70" class="st3" d="M136.5,32.6c-0.1,0-0.3-0.1-0.4-0.2l-2.3-2.3c-0.2-0.2-0.2-0.6,0-0.8c0.2-0.2,0.6-0.2,0.8,0
				l2.3,2.3c0.2,0.2,0.2,0.6,0,0.8C136.8,32.6,136.7,32.6,136.5,32.6"/>
			<path id="Trazado_71" class="st3" d="M135.7,34.7h-3.3c-0.3,0-0.6-0.2-0.6-0.6c0-0.3,0.2-0.6,0.6-0.6c0,0,0,0,0,0h3.3
				c0.3,0,0.6,0.2,0.6,0.6C136.2,34.4,136,34.7,135.7,34.7"/>
			<path id="Trazado_72" class="st3" d="M134.2,39.1c-0.3,0-0.6-0.2-0.5-0.6c0-0.1,0.1-0.3,0.2-0.4l2.3-2.3c0.2-0.2,0.6-0.2,0.8,0
				c0.2,0.2,0.2,0.6,0,0.8l0,0l-2.3,2.3C134.5,39.1,134.3,39.1,134.2,39.1"/>
			<path id="Trazado_73" class="st3" d="M138.6,40.9c-0.3,0-0.6-0.2-0.6-0.5c0,0,0,0,0,0v-3.3c0-0.3,0.2-0.6,0.6-0.6
				c0.3,0,0.6,0.2,0.6,0.6v3.3C139.1,40.7,138.9,40.9,138.6,40.9"/>
			<path id="Trazado_74" class="st3" d="M143,39.1c-0.1,0-0.3-0.1-0.4-0.2l-2.3-2.3c-0.2-0.2-0.2-0.6,0-0.8s0.6-0.2,0.8,0l2.3,2.3
				c0.2,0.2,0.2,0.6,0,0.8C143.3,39.1,143.2,39.1,143,39.1"/>
			<path id="Trazado_75" class="st3" d="M144.8,34.7h-3.3c-0.3,0-0.6-0.2-0.6-0.6c0-0.3,0.2-0.6,0.6-0.6c0,0,0,0,0,0h3.3
				c0.3,0,0.6,0.2,0.6,0.6C145.4,34.4,145.1,34.7,144.8,34.7"/>
			<path id="Trazado_76" class="st3" d="M140.7,32.6c-0.3,0-0.6-0.2-0.5-0.6c0-0.1,0.1-0.3,0.2-0.4l2.3-2.3c0.2-0.2,0.6-0.2,0.8,0
				c0.2,0.2,0.2,0.6,0,0.8l0,0l-2.3,2.3C141,32.6,140.8,32.6,140.7,32.6"/>
			<path id="Trazado_77" class="st3" d="M152.7,122.8c-0.3,0-0.5-0.2-0.5-0.5V119c0-0.3,0.2-0.5,0.5-0.5c0.3,0,0.5,0.2,0.5,0.5v3.3
				C153.2,122.6,153,122.8,152.7,122.8"/>
			<path id="Trazado_78" class="st3" d="M150.6,123.7c-0.1,0-0.2-0.1-0.3-0.1l-2.3-2.3c-0.2-0.2-0.2-0.5,0-0.7
				c0.2-0.2,0.5-0.2,0.7,0l2.3,2.3c0.2,0.2,0.2,0.5,0,0.7C150.9,123.6,150.8,123.7,150.6,123.7"/>
			<path id="Trazado_79" class="st3" d="M149.8,125.8h-3.3c-0.3,0-0.5-0.2-0.5-0.5c0-0.3,0.2-0.5,0.5-0.5h3.3c0.3,0,0.5,0.2,0.5,0.5
				C150.3,125.5,150.1,125.8,149.8,125.8C149.8,125.8,149.8,125.8,149.8,125.8"/>
			<path id="Trazado_80" class="st3" d="M148.3,130.2c-0.3,0-0.5-0.2-0.5-0.5c0-0.1,0.1-0.2,0.1-0.3l2.3-2.3c0.2-0.2,0.5-0.2,0.7,0
				c0.2,0.2,0.2,0.5,0,0.7c0,0,0,0,0,0l-2.3,2.3C148.5,130.1,148.4,130.2,148.3,130.2"/>
			<path id="Trazado_81" class="st3" d="M152.7,132c-0.3,0-0.5-0.2-0.5-0.5v-3.3c0-0.3,0.2-0.5,0.5-0.5c0.3,0,0.5,0.2,0.5,0.5v3.3
				C153.2,131.8,153,132,152.7,132"/>
			<path id="Trazado_82" class="st3" d="M157.1,130.2c-0.1,0-0.2-0.1-0.3-0.1l-2.3-2.3c-0.2-0.2-0.2-0.5,0-0.7
				c0.2-0.2,0.5-0.2,0.7,0l2.3,2.3c0.2,0.2,0.2,0.5,0,0.7C157.4,130.1,157.3,130.2,157.1,130.2"/>
			<path id="Trazado_83" class="st3" d="M159,125.8h-3.3c-0.3,0-0.5-0.2-0.5-0.5c0-0.3,0.2-0.5,0.5-0.5h3.3c0.3,0,0.5,0.2,0.5,0.5
				C159.5,125.5,159.3,125.8,159,125.8C159,125.8,159,125.8,159,125.8"/>
			<path id="Trazado_84" class="st3" d="M154.8,123.7c-0.3,0-0.5-0.2-0.5-0.5c0-0.1,0.1-0.2,0.1-0.3l2.3-2.3c0.2-0.2,0.5-0.2,0.7,0
				c0.2,0.2,0.2,0.5,0,0.7l-2.3,2.3C155,123.6,154.9,123.7,154.8,123.7"/>
			<path id="Trazado_85" class="st3" d="M96.8,6.9c-0.3,0-0.5-0.2-0.5-0.5V4c0-0.3,0.2-0.5,0.5-0.5c0.3,0,0.5,0.2,0.5,0.5v2.3
				C97.2,6.7,97,6.9,96.8,6.9"/>
			<path id="Trazado_86" class="st3" d="M95.3,7.5c-0.1,0-0.2-0.1-0.3-0.1l-1.7-1.7c-0.2-0.2-0.2-0.5,0-0.7s0.5-0.2,0.7,0l0,0
				l1.7,1.7c0.2,0.2,0.2,0.5,0,0.7C95.5,7.4,95.4,7.5,95.3,7.5"/>
			<path id="Trazado_87" class="st3" d="M94.7,8.9h-2.3c-0.3,0-0.5-0.2-0.5-0.5C91.8,8.2,92,8,92.3,8c0,0,0,0,0,0h2.3
				c0.3,0,0.5,0.2,0.5,0.5S95,8.9,94.7,8.9C94.7,8.9,94.7,8.9,94.7,8.9"/>
			<path id="Trazado_88" class="st3" d="M93.6,12.1c-0.3,0-0.5-0.2-0.5-0.5c0-0.1,0.1-0.2,0.1-0.3l1.7-1.7c0.2-0.2,0.5-0.2,0.7,0
				c0.2,0.2,0.2,0.5,0,0.7c0,0,0,0,0,0L94,11.9C93.9,12,93.8,12.1,93.6,12.1"/>
			<path id="Trazado_89" class="st3" d="M96.8,13.4c-0.3,0-0.5-0.2-0.5-0.5v-2.3c0-0.3,0.2-0.5,0.5-0.5c0.3,0,0.5,0.2,0.5,0.5v2.3
				C97.2,13.1,97,13.4,96.8,13.4"/>
			<path id="Trazado_90" class="st3" d="M99.9,12.1c-0.1,0-0.2-0.1-0.3-0.1l-1.7-1.7c-0.2-0.2-0.2-0.5,0-0.7c0.2-0.2,0.5-0.2,0.7,0
				l1.7,1.7c0.2,0.2,0.2,0.5,0,0.7C100.1,12,100,12.1,99.9,12.1"/>
			<path id="Trazado_91" class="st3" d="M101.2,8.9h-2.3c-0.3,0-0.5-0.2-0.5-0.5c0-0.3,0.2-0.5,0.5-0.5c0,0,0,0,0,0h2.3
				c0.3,0,0.5,0.2,0.5,0.5C101.7,8.7,101.5,8.9,101.2,8.9C101.2,8.9,101.2,8.9,101.2,8.9"/>
			<path id="Trazado_92" class="st3" d="M98.2,7.5c-0.3,0-0.5-0.2-0.5-0.5c0-0.1,0.1-0.2,0.1-0.3L99.5,5c0.2-0.2,0.5-0.2,0.7,0
				c0.2,0.2,0.2,0.5,0,0.7l-1.7,1.7C98.5,7.4,98.3,7.5,98.2,7.5"/>
			<path id="Trazado_93" class="st3" d="M36.8,31.8c-0.3,0-0.6-0.2-0.6-0.6v0v-3.3c0-0.3,0.2-0.6,0.6-0.6c0.3,0,0.5,0.2,0.6,0.6v3.3
				C37.4,31.5,37.1,31.8,36.8,31.8L36.8,31.8"/>
			<path id="Trazado_94" class="st3" d="M34.8,32.6c-0.1,0-0.3-0.1-0.4-0.2L32,30.1c-0.2-0.2-0.2-0.6,0-0.8c0.2-0.2,0.6-0.2,0.8,0
				l2.3,2.3c0.2,0.2,0.2,0.6,0,0.8C35.1,32.6,34.9,32.6,34.8,32.6"/>
			<path id="Trazado_95" class="st3" d="M33.9,34.7h-3.3c-0.3,0-0.6-0.2-0.6-0.6c0-0.3,0.2-0.6,0.6-0.6c0,0,0,0,0,0h3.3
				c0.3,0,0.6,0.2,0.6,0.6C34.5,34.4,34.2,34.7,33.9,34.7C33.9,34.7,33.9,34.7,33.9,34.7"/>
			<path id="Trazado_96" class="st3" d="M32.4,39.1c-0.3,0-0.6-0.2-0.5-0.6c0-0.1,0.1-0.3,0.2-0.4l2.3-2.3c0.2-0.2,0.6-0.2,0.8,0
				c0.2,0.2,0.2,0.6,0,0.8L32.8,39C32.7,39.1,32.6,39.1,32.4,39.1"/>
			<path id="Trazado_97" class="st3" d="M36.8,40.9c-0.3,0-0.6-0.2-0.6-0.5c0,0,0,0,0,0v-3.3c0-0.3,0.2-0.6,0.6-0.6
				c0.3,0,0.5,0.2,0.6,0.6v3.3C37.4,40.7,37.1,40.9,36.8,40.9C36.8,40.9,36.8,40.9,36.8,40.9"/>
			<path id="Trazado_98" class="st3" d="M41.3,39.1c-0.1,0-0.3-0.1-0.4-0.2l-2.3-2.3c-0.2-0.2-0.2-0.6,0-0.8c0.2-0.2,0.6-0.2,0.8,0
				l2.3,2.3c0.2,0.2,0.2,0.6,0,0.8C41.6,39.1,41.4,39.1,41.3,39.1"/>
			<path id="Trazado_99" class="st3" d="M43.1,34.7h-3.3c-0.3,0-0.6-0.2-0.6-0.6c0-0.3,0.2-0.5,0.6-0.6h3.3c0.3,0,0.6,0.2,0.6,0.6
				C43.6,34.4,43.4,34.7,43.1,34.7"/>
			<path id="Trazado_100" class="st3" d="M38.9,32.6c-0.3,0-0.6-0.2-0.5-0.6c0-0.1,0.1-0.3,0.2-0.4l2.3-2.3c0.2-0.2,0.6-0.2,0.8,0
				c0.2,0.2,0.2,0.6,0,0.8l-2.3,2.3C39.2,32.6,39.1,32.6,38.9,32.6"/>
			<path id="Trazado_101" class="st3" d="M13.6,94.6c-0.3,0-0.5-0.2-0.5-0.5v-3.3c0-0.3,0.2-0.5,0.5-0.5c0.3,0,0.5,0.2,0.5,0.5l0,0
				v3.3C14,94.4,13.8,94.6,13.6,94.6"/>
			<path id="Trazado_102" class="st3" d="M11.5,95.4c-0.1,0-0.2-0.1-0.3-0.1l-2.3-2.3c-0.2-0.2-0.2-0.5,0-0.7c0.2-0.2,0.5-0.2,0.7,0
				l2.3,2.3c0.2,0.2,0.2,0.5,0,0.7C11.7,95.4,11.6,95.4,11.5,95.4"/>
			<path id="Trazado_103" class="st3" d="M10.6,97.5H7.3c-0.3,0-0.5-0.2-0.5-0.5c0-0.3,0.2-0.5,0.5-0.5h3.3c0.3,0,0.5,0.2,0.5,0.5
				C11.1,97.3,10.9,97.5,10.6,97.5C10.6,97.5,10.6,97.5,10.6,97.5"/>
			<path id="Trazado_104" class="st3" d="M9.1,101.9c-0.3,0-0.5-0.2-0.5-0.5c0-0.1,0.1-0.2,0.1-0.3l2.3-2.3c0.2-0.2,0.5-0.2,0.7,0
				c0.2,0.2,0.2,0.5,0,0.7l-2.3,2.3C9.4,101.9,9.3,101.9,9.1,101.9"/>
			<path id="Trazado_105" class="st3" d="M13.6,103.8c-0.3,0-0.5-0.2-0.5-0.5V100c0-0.3,0.2-0.5,0.5-0.5c0.3,0,0.5,0.2,0.5,0.5l0,0
				v3.3C14,103.5,13.8,103.8,13.6,103.8"/>
			<path id="Trazado_106" class="st3" d="M18,101.9c-0.1,0-0.3-0.1-0.3-0.1l-2.3-2.3c-0.2-0.2-0.2-0.5,0-0.7c0.2-0.2,0.5-0.2,0.7,0
				l2.3,2.3c0.2,0.2,0.2,0.5,0,0.7C18.2,101.9,18.1,101.9,18,101.9"/>
			<path id="Trazado_107" class="st3" d="M19.8,97.5h-3.3c-0.3,0-0.5-0.2-0.5-0.5c0-0.3,0.2-0.5,0.5-0.5h3.3c0.3,0,0.5,0.2,0.5,0.5
				C20.3,97.3,20.1,97.5,19.8,97.5C19.8,97.5,19.8,97.5,19.8,97.5"/>
			<path id="Trazado_108" class="st3" d="M15.6,95.4c-0.3,0-0.5-0.2-0.5-0.5c0-0.1,0.1-0.2,0.1-0.3l2.3-2.3c0.2-0.2,0.5-0.2,0.7,0
				c0.2,0.2,0.2,0.5,0,0.7L16,95.3C15.9,95.4,15.8,95.4,15.6,95.4"/>
		</g>
	</g>
</g>
<path id="Icon_awesome-user-circle" class="st5" d="M89.2,34.4c-32.6,0-59.1,26.5-59.1,59.1s26.5,59.1,59.1,59.1
	s59.1-26.5,59.1-59.1C148.3,60.9,121.8,34.4,89.2,34.4C89.2,34.4,89.2,34.4,89.2,34.4z M89.2,57.3c11.6,0,21,9.4,21,21
	s-9.4,21-21,21c-11.6,0-21-9.4-21-21c0,0,0,0,0,0C68.2,66.7,77.6,57.3,89.2,57.3L89.2,57.3z M89.2,139.3c-13.5,0-26.2-6-34.9-16.2
	c4.6-8.7,13.6-14.2,23.5-14.2c0.6,0,1.1,0.1,1.7,0.3c3.1,1.1,6.4,1.6,9.7,1.6c3.3,0,6.6-0.6,9.7-1.6c0.5-0.2,1.1-0.3,1.7-0.3
	c9.9,0,18.9,5.5,23.5,14.2C115.4,133.3,102.6,139.3,89.2,139.3L89.2,139.3z"/>
</svg>
